<?xml version="1.0" standalone="no"?>
<!DOCTYPE svg PUBLIC "-//W3C//DTD SVG 1.1//EN" "http://www.w3.org/Graphics/SVG/1.1/DTD/svg11.dtd" >
<svg xmlns="http://www.w3.org/2000/svg" xmlns:xlink="http://www.w3.org/1999/xlink" version="1.1">
<metadata></metadata>
<defs>
<font id="sharp_grotesklight_15" horiz-adv-x="958" >
<font-face units-per-em="2048" ascent="1638" descent="-410" />
<missing-glyph horiz-adv-x="464" />
<glyph horiz-adv-x="0" />
<glyph horiz-adv-x="682" />
<glyph unicode=" "  horiz-adv-x="464" />
<glyph unicode="&#x09;" horiz-adv-x="464" />
<glyph unicode="&#xa0;" horiz-adv-x="464" />
<glyph unicode="!" horiz-adv-x="526" d="M178 82q0 96 82 96t82 -96q0 -98 -82 -98q-43 0 -62.5 22.5t-19.5 75.5zM209 1186v266h102v-264q0 -135 -2 -213q0 -49 -6 -436q-3 -191 -8 -236q-6 2 -37 2q-27 0 -33 -2l-4 78q-7 282 -8 367q-4 304 -4 438z" />
<glyph unicode="&#x22;" horiz-adv-x="530" d="M109 1335v115h92v-115q0 -16 -1 -58t-1 -67q-3 -152 -15 -233h-59q-8 87 -8 96q-8 115 -8 262zM330 1335v115h90v-115q0 -78 -2 -125q-4 -175 -12 -233h-60q-8 87 -8 96q-8 115 -8 262z" />
<glyph unicode="#" horiz-adv-x="1341" d="M94 494v88h299l53 340h-292v88h305l67 440h92l-65 -440h307l68 440h92l-66 -440h293v-88h-307l-51 -340h299v-88h-314l-73 -494h-94l75 494h-307l-74 -494h-96l76 494h-287zM489 582h306l53 340h-309z" />
<glyph unicode="$" d="M90 348v152h103v-150q0 -133 74.5 -205.5t217.5 -72.5q134 0 204.5 71.5t70.5 184.5v67q0 95 -45 152q-40 53 -104.5 89.5t-161.5 74.5q-125 57 -158 75q-83 45 -128.5 113.5t-45.5 175.5v58q0 147 85 236.5t240 96.5v238h93v-242q141 -13 217.5 -98.5t76.5 -226.5v-131 h-98v127q0 120 -68 182.5t-192 62.5q-119 0 -186.5 -68t-67.5 -180v-51q0 -85 43 -141q27 -34 73.5 -64.5t81 -46.5t103.5 -45q113 -47 162 -77q85 -47 131.5 -119.5t46.5 -186.5v-69q0 -144 -84.5 -239.5t-243.5 -108.5v-234h-92v234q-348 21 -348 366z" />
<glyph unicode="%" horiz-adv-x="1193" d="M96 1094v145q0 107 59 167t158 60q103 0 160 -60t57 -167v-145q0 -106 -57 -168t-160 -62q-104 0 -160.5 60t-56.5 170zM125 0l840 1450h102l-836 -1450h-106zM176 1098q0 -76 35.5 -117t101.5 -41t102 42.5t36 115.5v139q0 73 -36.5 114.5t-101.5 41.5t-101 -40 t-36 -116v-139zM659 209v145q0 107 60.5 168.5t159.5 61.5q102 0 159.5 -61t57.5 -169v-145q0 -105 -58 -167t-161 -62t-160.5 59.5t-57.5 169.5zM741 213q0 -156 136 -156q67 0 103 41.5t36 114.5v139q0 73 -37.5 115.5t-99.5 42.5q-65 0 -101.5 -41t-36.5 -117v-139z" />
<glyph unicode="&#x26;" horiz-adv-x="1212" d="M78 334v10q0 103 41 180q68 129 260 267q-78 215 -78 376v15q0 133 70.5 208.5t191.5 75.5q116 0 183 -66t67 -181v-15q0 -96 -43 -174q-40 -71 -108 -133.5t-175 -140.5q55 -120 109 -221q108 -197 219 -320q99 107 149 273.5t50 361.5v119h92v-119q0 -211 -58 -393 t-171 -301q94 -82 172 -82q63 0 102 39v-97q-42 -30 -107 -30q-108 0 -235 108q-146 -112 -340 -112q-182 0 -286.5 88t-104.5 264zM174 340q0 -134 80.5 -203t214.5 -69q154 0 279 88q-105 118 -230 338q-45 81 -106 215q-55 -40 -94.5 -76t-73.5 -80.5t-51.5 -96 t-18.5 -110.5v-6zM389 1169q0 -147 66 -333q66 47 135 106q66 58 100.5 120.5t34.5 141.5v15q0 77 -42.5 122t-119.5 45q-79 0 -126.5 -53.5t-47.5 -148.5v-15z" />
<glyph unicode="'" horiz-adv-x="309" d="M109 1323v127h92v-127q0 -16 -1 -57t-1 -66q-12 -189 -17 -223h-55q-6 56 -8 92q-10 137 -10 254z" />
<glyph unicode="(" horiz-adv-x="645" d="M152 262v635q0 312 107 464.5t308 170.5v-92q-156 -18 -234.5 -145.5t-78.5 -397.5v-633q0 -268 80 -398.5t233 -144.5v-94q-102 7 -177.5 46t-129.5 115t-81 194.5t-27 279.5z" />
<glyph unicode=")" horiz-adv-x="645" d="M78 -279q153 14 233 144.5t80 398.5v633q0 271 -78.5 399t-234.5 142v94q416 -37 416 -635v-635q0 -318 -104.5 -469.5t-311.5 -165.5v94z" />
<glyph unicode="*" horiz-adv-x="694" d="M102 1133l224 90l-222 90l43 76l191 -148l-33 240h86l-33 -238l191 146l43 -74l-225 -90l225 -92l-43 -76l-191 147l33 -237h-86l33 239l-191 -149z" />
<glyph unicode="+" horiz-adv-x="933" d="M162 674v88h260v258h88v-258h266v-88h-266v-258h-88v258h-260z" />
<glyph unicode="," horiz-adv-x="495" d="M156 -170q99 52 108 168q-10 -10 -31 -10q-33 0 -50 20t-17 68q0 98 82 98q48 0 69 -29t21 -104q0 -96 -42.5 -164t-121.5 -104z" />
<glyph unicode="-" horiz-adv-x="864" d="M117 571v97h635v-97h-635z" />
<glyph unicode="." horiz-adv-x="495" d="M166 82q0 98 84 98t84 -98t-84 -98q-45 0 -64.5 22.5t-19.5 75.5z" />
<glyph unicode="/" horiz-adv-x="583" d="M76 0l334 1450h102l-336 -1450h-100z" />
<glyph unicode="0" horiz-adv-x="1028" d="M123 432v576q0 219 101.5 338.5t289.5 119.5t290.5 -119.5t102.5 -338.5v-576q0 -222 -102.5 -337t-290.5 -115q-191 0 -291 114t-100 338zM223 436q0 -362 291 -362q144 0 217.5 92t73.5 270v568q0 179 -73.5 275.5t-217.5 96.5q-291 0 -291 -372v-568z" />
<glyph unicode="1" horiz-adv-x="675" d="M68 0v96h225v1141q-26 -35 -74.5 -55.5t-107.5 -22.5v82q96 4 138 51.5t60 159.5h80v-1356h229v-96h-550z" />
<glyph unicode="2" horiz-adv-x="950" d="M104 0v86q0 138 52 236q48 92 119.5 167t173.5 156q76 61 143 125q153 139 153 299v53q0 254 -253 254q-132 0 -201.5 -67.5t-69.5 -196.5v-197h-98v197q0 173 96 263.5t273 90.5q174 0 264 -90t90 -254v-51q0 -111 -45 -194q-21 -40 -49.5 -77.5t-70 -77.5t-69 -64 t-80.5 -68q-84 -71 -153 -137q-79 -78 -122.5 -163.5t-43.5 -193.5h645v-96h-754z" />
<glyph unicode="3" horiz-adv-x="974" d="M100 328v176h101v-170q0 -134 69.5 -197t214.5 -63q138 0 207.5 71.5t69.5 206.5v88q0 134 -64 199.5t-196 65.5h-127v90h125q122 0 182.5 69t60.5 185v79q0 118 -64.5 183t-195.5 65q-134 0 -202 -67.5t-68 -182.5v-143h-100v145q0 155 97 246.5t275 91.5 q179 0 270 -86.5t91 -244.5v-80q0 -246 -203 -303q221 -50 221 -318v-88q0 -174 -94.5 -270t-284.5 -96q-195 0 -290 84t-95 264z" />
<glyph unicode="4" horiz-adv-x="944" d="M55 367v77l549 1006h92v-995h197v-88h-197v-367h-92v367h-549zM162 455h442v766l17 129l-41 -119z" />
<glyph unicode="5" horiz-adv-x="985" d="M123 328v155h102v-149q0 -126 66 -194t198 -68q135 0 207 74.5t72 215.5v281q0 138 -62 205t-188 67q-190 0 -280 -188l-19 -41l-86 27l74 737h618v-2q0 -59 -20.5 -74.5t-95.5 -15.5h-420l-27 -262q-22 -233 -26 -275q100 185 305 185q162 0 245.5 -91.5t83.5 -265.5 v-293q0 -184 -99 -280t-282 -96q-181 0 -273.5 89t-92.5 259z" />
<glyph unicode="6" horiz-adv-x="1005" d="M123 422v596q0 448 397 448q177 0 272 -94t95 -280v-48h-103v43q0 289 -266 289q-154 0 -226.5 -91t-72.5 -269v-352q36 99 122.5 157t209.5 58q172 0 263 -101.5t91 -281.5v-84q0 -219 -102 -325.5t-293 -106.5q-387 0 -387 442zM219 426q0 -177 71 -264.5t220 -87.5 q295 0 295 342v73q0 135 -70 217t-209 82q-87 0 -155 -36q-71 -37 -111 -101t-41 -147v-78z" />
<glyph unicode="7" horiz-adv-x="843" d="M57 1356v94h729v-84q-112 -229 -180 -397q-201 -483 -268 -969h-107q39 259 115 514q128 435 336 842h-625z" />
<glyph unicode="8" horiz-adv-x="980" d="M94 322v124q0 116 57 199.5t158 114.5q-89 29 -138.5 103t-49.5 177v90q0 157 97.5 246.5t275.5 89.5t274 -89t96 -247v-88q0 -102 -52.5 -177.5t-143.5 -104.5q103 -29 161 -111t58 -203v-124q0 -155 -105 -248.5t-293 -93.5q-190 0 -292.5 92.5t-102.5 249.5zM197 330 q0 -115 76 -186.5t216 -71.5q143 0 220 70.5t77 187.5v119q0 120 -69.5 193t-202.5 73h-51q-90 0 -146 -39q-59 -36 -89.5 -95.5t-30.5 -131.5v-119zM221 1042q0 -61 25 -116q60 -127 219 -127h49q121 0 185.5 70.5t64.5 174.5v82q0 119 -69 184.5t-201 65.5 q-131 0 -202 -67t-71 -185v-82z" />
<glyph unicode="9" horiz-adv-x="999" d="M102 956v84q0 426 392 426q385 0 385 -444v-596q0 -446 -398 -446q-177 0 -273.5 92t-96.5 276v92h102v-88q0 -282 274 -282q153 0 223 90.5t70 269.5v363q-34 -101 -116 -159.5t-205 -58.5q-174 0 -265.5 101.5t-91.5 279.5zM203 963q0 -137 71.5 -219t208.5 -82 q129 0 212 85.5t85 219.5v51q0 180 -68.5 268t-217.5 88q-291 0 -291 -338v-73z" />
<glyph unicode=":" horiz-adv-x="507" d="M170 877q0 53 19.5 74.5t64.5 21.5t64.5 -21.5t19.5 -74.5t-20 -75t-64 -22q-45 0 -64.5 21.5t-19.5 75.5zM172 197q0 53 19.5 74.5t64.5 21.5t64.5 -21.5t19.5 -74.5t-20.5 -75t-65.5 -22q-44 0 -63 21.5t-19 75.5z" />
<glyph unicode=";" horiz-adv-x="507" d="M162 -170q98 52 110 168q-10 -10 -30 -10q-35 0 -52.5 20t-17.5 68q0 98 84 98q48 0 68 -29t20 -104q0 -96 -42.5 -164t-121.5 -104zM170 877q0 53 19.5 74.5t64.5 21.5t64.5 -21.5t19.5 -74.5t-20 -75t-64 -22q-45 0 -64.5 21.5t-19.5 75.5z" />
<glyph unicode="&#x3c;" horiz-adv-x="942" d="M162 702v84l594 261v-99l-484 -200l484 -207v-105z" />
<glyph unicode="=" horiz-adv-x="942" d="M156 496v88h626v-88h-626zM156 877v90h626v-90h-626z" />
<glyph unicode="&#x3e;" horiz-adv-x="942" d="M190 436v105l484 207l-484 200v99l592 -261v-84z" />
<glyph unicode="?" horiz-adv-x="999" d="M147 932v196q0 161 90.5 249.5t268.5 88.5q174 0 261 -84t87 -223v-104q0 -88 -25 -152q-21 -54 -54.5 -94t-84.5 -86q-27 -25 -76 -74q-79 -86 -79 -227l-3 -127q-3 8 -47 8q-41 0 -49 -8l-2 74v63q0 93 25 160q22 55 56.5 96.5t86.5 87.5q49 46 72 70q80 80 80 205v102 q0 102 -60.5 162.5t-187.5 60.5q-134 0 -196 -64.5t-62 -189.5v-190h-101zM406 82q0 53 19.5 74.5t63.5 21.5q43 0 62.5 -21.5t19.5 -74.5q0 -98 -84 -98q-42 0 -61.5 22.5t-19.5 75.5z" />
<glyph unicode="@" horiz-adv-x="1366" d="M121 352v479q0 188 74 324q73 133 200 201.5t295 68.5q181 0 303 -73q122 -72 187 -198t65 -290v-452q0 -162 -52 -241t-159 -79q-138 0 -178 131q-40 -143 -197 -143q-119 0 -175 74.5t-56 224.5v424q0 309 238 309q143 0 186 -139l12 129h58v-787q0 -147 114 -147 q66 0 95.5 59.5t29.5 186.5v446q0 139 -51 250q-116 233 -420 233q-223 0 -354 -134t-131 -382v-471q0 -260 127 -385t360 -125q230 0 342 152l88 -31q-144 -205 -430 -205q-169 0 -299 62q-272 136 -272 528zM512 383q0 -227 162 -227q166 0 166 229v406q0 129 -36.5 186 t-125.5 57q-166 0 -166 -237v-414z" />
<glyph unicode="A" horiz-adv-x="952" d="M59 0l363 1450h96l377 -1450h-102l-88 356h-459l-86 -356h-101zM268 451h412l-180 727l-29 180l-31 -182z" />
<glyph unicode="B" horiz-adv-x="993" d="M156 0v1450h362q194 0 277.5 -78.5t83.5 -236.5v-88q0 -124 -46 -195t-151 -100q114 -26 165.5 -96.5t51.5 -194.5v-121q0 -85 -17 -145.5t-56.5 -105.5t-109 -67t-169.5 -22h-391zM254 90h285q77 0 127.5 15.5t79 49t40 78.5t11.5 111v113q0 126 -64 187t-211 61h-268 v-615zM254 793h266h4q134 -1 194 61q62 62 62 195v79q0 121 -58.5 178.5t-203.5 57.5h-264v-571z" />
<glyph unicode="C" horiz-adv-x="1021" d="M127 434v572q0 226 100 343t295 117q204 0 300 -113t96 -347v-72h-107v67q0 192 -67 283.5t-222 91.5q-151 0 -222 -94t-71 -281v-563q0 -187 71 -275.5t222 -88.5t221 88t70 276v117h105v-121q0 -233 -99 -343.5t-297 -110.5t-296.5 110.5t-98.5 343.5z" />
<glyph unicode="D" horiz-adv-x="1038" d="M156 0v1450h311q210 0 326 -111t116 -344v-536q0 -235 -116 -347t-324 -112h-313zM254 90h213q162 0 252 92t90 281v528q0 371 -346 371h-209v-1272z" />
<glyph unicode="E" horiz-adv-x="886" d="M156 0v1450h641v-90h-543v-563h471v-92h-471v-613h561v-92h-659z" />
<glyph unicode="F" horiz-adv-x="835" d="M156 0v1450h612v-90h-516v-615h483v-92h-483v-653h-96z" />
<glyph unicode="G" horiz-adv-x="1054" d="M127 432v563q0 471 412 471q179 0 274.5 -96t95.5 -283v-106h-102v104q0 293 -268 293q-158 0 -234 -95.5t-76 -289.5v-555q0 -187 72.5 -275.5t220.5 -88.5q141 0 217 95.5t76 270.5v205h-299v90h393v-735h-65l-15 256q-61 -276 -325 -276q-190 0 -283.5 110t-93.5 342z " />
<glyph unicode="H" horiz-adv-x="1046" d="M156 0v1450h98v-682h539v682h98v-1450h-98v674h-539v-674h-98z" />
<glyph unicode="I" horiz-adv-x="651" d="M68 0v92h211v1268h-211v90h516v-90h-209v-1268h209v-92h-516z" />
<glyph unicode="J" horiz-adv-x="862" d="M88 305v187h100v-183q0 -110 52 -172.5t161 -62.5q117 0 168.5 65.5t51.5 210.5v1100h100v-1104q0 -366 -320 -366q-155 0 -234 83.5t-79 241.5z" />
<glyph unicode="K" horiz-adv-x="985" d="M156 0v1450h98v-748l-4 -77l14 37l529 788h112l-352 -526l387 -924h-109l-323 788l-23 72l-231 -340v-520h-98z" />
<glyph unicode="L" horiz-adv-x="811" d="M156 0v1450h98v-1356h498v-94h-596z" />
<glyph unicode="M" horiz-adv-x="1210" d="M156 0v1450h96l354 -778l355 778h94v-1450h-94v1051l20 280l-39 -112l-317 -689h-39l-322 695l-35 104l21 -280v-1049h-94z" />
<glyph unicode="N" horiz-adv-x="1089" d="M156 0v1450h90l534 -1112l76 -199l-16 221v1090h94v-1450h-86l-537 1120l-78 213l17 -223v-1110h-94z" />
<glyph unicode="O" horiz-adv-x="1052" d="M127 434v570q0 226 102 344t297 118q196 0 297 -117t101 -345v-570q0 -233 -100 -343.5t-298 -110.5t-298.5 110.5t-100.5 343.5zM229 438q0 -187 73 -275.5t224 -88.5t224 88.5t73 275.5v561q0 377 -297 377t-297 -377v-561z" />
<glyph unicode="P" horiz-adv-x="968" d="M156 0v1450h331q383 0 383 -371v-227q0 -178 -94 -278q-93 -99 -276 -99h-4h-242v-475h-98zM254 563h238q136 0 207 77t71 212v227q0 283 -285 283h-231v-799z" />
<glyph unicode="Q" horiz-adv-x="1052" d="M127 434v570q0 226 102 344t297 118q196 0 297 -117t101 -345v-570q0 -306 -181 -405l148 -224h-129l-109 189q-49 -14 -127 -14q-198 0 -298.5 110.5t-100.5 343.5zM229 438q0 -187 73 -275.5t224 -88.5t224 88.5t73 275.5v561q0 377 -297 377t-297 -377v-561z" />
<glyph unicode="R" horiz-adv-x="993" d="M156 0v1450h364q189 0 275 -85.5t86 -254.5v-129q0 -236 -207 -297q102 -20 145 -84t43 -194v-316q0 -64 33 -90h-113q-20 33 -20 92v311q0 128 -56 181t-196 53h-256v-637h-98zM254 723h256q133 0 201.5 67t68.5 195v119q0 131 -60 194.5t-202 63.5h-264v-639z" />
<glyph unicode="S" horiz-adv-x="944" d="M90 348v152h103v-150q0 -133 74.5 -205.5t217.5 -72.5q134 0 204.5 71.5t70.5 184.5v67q0 95 -45 152q-40 53 -104.5 89.5t-161.5 74.5q-125 57 -158 75q-83 45 -128.5 113.5t-45.5 175.5v58q0 152 94.5 242.5t261.5 90.5q170 0 263 -85.5t93 -243.5v-131h-98v127 q0 120 -68 182.5t-192 62.5q-119 0 -186.5 -68t-67.5 -180v-51q0 -85 43 -141q27 -34 73.5 -64.5t81 -46.5t103.5 -45q113 -47 162 -77q85 -47 131.5 -119.5t46.5 -186.5v-69q0 -99 -41 -176q-44 -82 -128 -128t-204 -46q-395 0 -395 368z" />
<glyph unicode="T" horiz-adv-x="804" d="M55 1358v92h695v-92h-301v-1358h-99v1358h-295z" />
<glyph unicode="U" horiz-adv-x="1017" d="M145 412v1038h101v-1034q0 -178 62.5 -259t201.5 -81q138 0 200 81t62 259v1034h100v-1038q0 -219 -89.5 -325.5t-272.5 -106.5q-188 0 -276.5 105.5t-88.5 326.5z" />
<glyph unicode="V" horiz-adv-x="944" d="M57 1450h105l276 -1147l33 -188l35 184l282 1151h103l-371 -1450h-98z" />
<glyph unicode="W" horiz-adv-x="1400" d="M76 1450h96l174 -1178l6 -157l19 149l286 1186h72l268 -1186l19 -149l10 155l205 1180h94l-260 -1450h-88l-275 1217l-10 120l-10 -120l-293 -1217h-92z" />
<glyph unicode="X" horiz-adv-x="903" d="M31 0l366 776l-309 674h107l245 -559l15 -45l12 45l250 559h108l-317 -672l360 -778h-108l-291 649l-16 51l-15 -51l-295 -649h-112z" />
<glyph unicode="Y" horiz-adv-x="892" d="M51 1450h105l272 -770l12 -74l15 74l284 770h105l-355 -932v-518h-100v520z" />
<glyph unicode="Z" horiz-adv-x="862" d="M72 0v86l592 1272h-547v92h655v-88l-586 -1266h598v-96h-712z" />
<glyph unicode="[" horiz-adv-x="618" d="M172 -369v1897h369v-88h-271v-1721h271v-88h-369z" />
<glyph unicode="\" horiz-adv-x="583" d="M76 1450h100l332 -1450h-100z" />
<glyph unicode="]" horiz-adv-x="618" d="M80 -281h270v1721h-270v88h366v-1897h-366v88z" />
<glyph unicode="^" horiz-adv-x="825" d="M152 993l221 457h78l221 -457h-99l-161 363l-164 -363h-96z" />
<glyph unicode="_" horiz-adv-x="874" d="M74 0v94h729v-94h-729z" />
<glyph unicode="`" horiz-adv-x="804" d="M209 1589h113l178 -278h-84z" />
<glyph unicode="a" d="M88 266v29q0 165 127 262q45 34 95.5 56t164.5 61q47 15 129 49q62 26 93.5 62t31.5 92v10q0 211 -252 211q-126 0 -194 -62.5t-68 -177.5v-94h-96v98q0 149 93 234.5t265 85.5q176 0 260 -79.5t84 -219.5v-883h-76l-14 279q-33 -139 -122 -218t-224 -79 q-146 0 -221.5 73t-75.5 211zM193 279q0 -100 55.5 -155.5t161.5 -55.5q104 0 176 57q70 57 106.5 151t36.5 207v262q-11 -24 -29.5 -42.5t-52 -35.5t-59 -27.5t-80.5 -31.5q-93 -30 -138 -51.5t-87 -54.5q-90 -76 -90 -209v-14z" />
<glyph unicode="b" horiz-adv-x="1007" d="M145 0v1532h93v-590q65 240 305 240q346 0 346 -432v-334q0 -214 -92.5 -324t-264.5 -110q-241 0 -296 239l-15 -221h-76zM238 420q0 -165 69 -255.5t205 -90.5q279 0 279 346v325q0 351 -269 351q-136 0 -210 -96.5t-74 -258.5v-321z" />
<glyph unicode="c" horiz-adv-x="937" d="M111 395v363q0 217 93 320.5t277 103.5q174 0 265.5 -88.5t91.5 -282.5v-72h-103v68q0 158 -61.5 223.5t-192.5 65.5q-272 0 -272 -344v-351q0 -165 64 -247t200 -82q135 0 198.5 71.5t63.5 223.5v86h103v-91q0 -382 -365 -382q-362 0 -362 415z" />
<glyph unicode="d" horiz-adv-x="1001" d="M111 412v331q0 219 93 329t265 110q229 0 293 -215v565h94v-1532h-76l-16 238q-27 -120 -103.5 -188t-199.5 -68q-171 0 -260.5 107t-89.5 323zM209 420q0 -348 272 -348q135 0 208 97.5t73 260.5v309q0 166 -67.5 261.5t-207.5 95.5q-135 0 -206.5 -92t-71.5 -269v-315z " />
<glyph unicode="e" horiz-adv-x="954" d="M111 383v375q0 209 97 316.5t279 107.5t273.5 -105.5t91.5 -308.5v-207h-647v-172q0 -317 280 -317q126 0 196.5 63.5t70.5 194.5v65h100v-59q0 -173 -95 -264.5t-272 -91.5q-191 0 -282.5 101t-91.5 302zM205 643h549v125q0 169 -65.5 248.5t-201.5 79.5 q-282 0 -282 -338v-115z" />
<glyph unicode="f" horiz-adv-x="555" d="M29 1073v90h164v86q0 127 24 191q24 66 80.5 93.5t155.5 27.5h67v-88h-59q-67 0 -109 -17q-37 -18 -51 -65t-14 -146v-82h233v-90h-233l-2 -1073h-92v1073h-164z" />
<glyph unicode="g" horiz-adv-x="919" d="M76 -193q0 78 58 134.5t159 83.5q-207 9 -207 159q0 66 53 110.5t158 61.5q-180 53 -180 277v213q0 264 252 325q11 3 102 19q125 17 168 55t43 123v43h104v-37q0 -105 -52 -154t-189 -59l47 -6q53 -9 102 -43q115 -71 115 -256v-221q0 -158 -92.5 -238t-257.5 -80h-47 q-234 0 -234 -112q0 -96 166 -96h10h224q299 0 299 -222v-6q0 -121 -113.5 -199.5t-319.5 -78.5h-36q-171 0 -251.5 53.5t-80.5 150.5zM172 -170q0 -65 60.5 -103t181.5 -38h41q148 0 237.5 52.5t89.5 133.5v6q0 73 -52 108.5t-167 35.5h-80q-140 -2 -225.5 -54.5 t-85.5 -140.5zM217 635q0 -240 240 -240q124 0 189 60.5t65 179.5v221q0 250 -238 250q-47 0 -88 -12q-168 -41 -168 -246v-213z" />
<glyph unicode="h" horiz-adv-x="987" d="M145 0v1532h93v-594q30 118 104.5 181t192.5 63q159 0 237 -95.5t78 -275.5v-811h-98v801q0 293 -242 293q-130 0 -201 -94t-71 -255v-745h-93z" />
<glyph unicode="i" horiz-adv-x="389" d="M127 1393q0 88 70 88q67 0 67 -88q0 -86 -69 -86q-37 0 -52.5 20.5t-15.5 65.5zM145 0v1163h99v-1163h-99z" />
<glyph unicode="j" horiz-adv-x="393" d="M-61 -242h47q99 0 131.5 38t32.5 157v1210h96v-1216q0 -111 -23 -170q-20 -61 -74 -86t-157 -25h-53v92zM131 1393q0 88 70 88q67 0 67 -88q0 -86 -69 -86q-37 0 -52.5 20.5t-15.5 65.5z" />
<glyph unicode="k" horiz-adv-x="903" d="M145 0v1532h95v-983l-2 -51l481 665h112l-303 -424l332 -739h-104l-297 680l-219 -303v-377h-95z" />
<glyph unicode="l" horiz-adv-x="391" d="M147 0v1532h97v-1532h-97z" />
<glyph unicode="m" horiz-adv-x="1476" d="M145 0v1163h76l12 -202q30 107 98 166t173 59q222 0 266 -225q27 107 96 166t176 59q297 0 297 -365v-821h-98v809q0 144 -53 216.5t-170 72.5q-78 0 -129 -39q-98 -73 -98 -242v-817h-97v819q0 136 -49.5 207.5t-165.5 71.5q-119 0 -178 -91t-59 -249v-758h-97z" />
<glyph unicode="n" horiz-adv-x="987" d="M145 0v1163h76l15 -225q27 116 102.5 180t196.5 64q317 0 317 -375v-807h-98v797q0 149 -57 223t-183 74q-132 0 -202 -91.5t-70 -257.5v-745h-97z" />
<glyph unicode="o" horiz-adv-x="972" d="M111 385v377q0 213 96.5 316.5t275.5 103.5q371 0 371 -420v-377q0 -202 -95.5 -303.5t-275.5 -101.5q-372 0 -372 405zM209 391q0 -319 274 -319q273 0 273 319v367q0 338 -273 338q-274 0 -274 -338v-367z" />
<glyph unicode="p" horiz-adv-x="1003" d="M145 -403v1566h74l14 -227q30 117 107.5 181.5t200.5 64.5q172 0 260 -106t88 -331v-333q0 -212 -92.5 -321t-264.5 -109q-232 0 -294 227v-612h-93zM238 416q0 -162 69.5 -253t204.5 -91q279 0 279 342v327q0 181 -67 268t-202 87q-138 0 -211 -97t-73 -264v-319z" />
<glyph unicode="q" horiz-adv-x="999" d="M111 401v340q0 221 93 331t265 110q240 0 297 -238l16 219h72v-1566h-92v634q-30 -120 -105.5 -184.5t-195.5 -64.5q-171 0 -260.5 104t-89.5 315zM209 412q0 -342 272 -342q133 0 207 97.5t74 258.5v307q0 172 -67 267.5t-208 95.5q-135 0 -206.5 -90t-71.5 -269v-325z " />
<glyph unicode="r" horiz-adv-x="624" d="M145 0v1163h74l17 -223q25 117 98.5 171t210.5 54h33v-100h-46q-161 0 -226.5 -86t-65.5 -277v-702h-95z" />
<glyph unicode="s" horiz-adv-x="890" d="M94 301v107h103v-103q0 -111 64 -173t192 -62q245 0 245 233v25q0 72 -39 114q-37 39 -93.5 66t-143.5 57q-95 35 -146 62q-159 73 -159 241v25q0 131 85 210t240 79q162 0 247 -76t85 -217v-84h-98v86q0 99 -59 153t-177 54q-110 0 -168.5 -56.5t-58.5 -146.5v-23 q0 -68 39 -110q34 -37 89.5 -63.5t143.5 -57.5q74 -23 148 -61q162 -74 162 -248v-29q0 -155 -85.5 -239t-258.5 -84q-179 0 -268 82.5t-89 238.5z" />
<glyph unicode="t" horiz-adv-x="595" d="M35 1073v84h28q62 5 66 6q41 4 52.5 18t19.5 66q1 3 1.5 9.5t1 15.5t1.5 16q1 14 2.5 39t2.5 43.5t1 30.5h74v-238h254v-90h-254v-731q0 -102 16 -158q18 -52 60 -71t124 -19h54v-94h-70q-102 0 -168 29q-59 26 -85 98.5t-26 208.5v737h-155z" />
<glyph unicode="u" d="M139 350v813h99v-801q0 -290 225 -290q120 0 186 91.5t66 254.5v745h98v-1163h-78l-12 225q-27 -116 -99 -179.5t-184 -63.5q-301 0 -301 368z" />
<glyph unicode="v" horiz-adv-x="907" d="M55 1163h99l286 -977l13 -67l12 67l289 977h100l-354 -1163h-97z" />
<glyph unicode="w" horiz-adv-x="1298" d="M61 1163h97l170 -921l14 -136l25 136l247 921h62l233 -919l21 -138l18 134l193 923h96l-256 -1163h-92l-227 911l-19 123l-18 -125l-244 -909h-96z" />
<glyph unicode="x" horiz-adv-x="845" d="M39 0l332 618l-293 545h108l226 -438l14 -45l14 45l230 438h108l-297 -545l326 -618h-109l-258 506l-14 49l-14 -49l-262 -506h-111z" />
<glyph unicode="y" horiz-adv-x="866" d="M57 1163h101l266 -927l22 -115l19 119l250 923h100l-344 -1224q-41 -119 -72 -162q-34 -57 -89.5 -78t-159.5 -21h-58v93h51q75 0 115 12q42 13 69 51t54 117l16 67z" />
<glyph unicode="z" horiz-adv-x="806" d="M66 0v78l569 997h-535v88h641v-82l-563 -989h561v-92h-673z" />
<glyph unicode="{" horiz-adv-x="630" d="M63 561v94h64q143 0 143 152q0 62 -20 143q-4 16 -16.5 66.5t-17.5 74t-13 63t-11.5 70.5t-3.5 58q0 121 58 184.5t205 63.5h100v-84h-70q-110 0 -152 -44t-42 -136q0 -69 20 -150q5 -21 20.5 -82t21.5 -89.5t13 -71.5t7 -74q0 -191 -172 -191q84 0 130 -55.5t46 -153.5 q0 -64 -45 -252q-47 -180 -47 -253q0 -90 43 -134.5t153 -44.5h74v-86h-105q-145 0 -205.5 64.5t-60.5 183.5q0 94 49 268q47 184 47 246q0 89 -36.5 129.5t-110.5 40.5h-66z" />
<glyph unicode="|" horiz-adv-x="415" d="M160 -240v1891h98v-1891h-98z" />
<glyph unicode="}" horiz-adv-x="630" d="M78 -285h76q110 0 153 44.5t43 134.5q0 65 -45 253q-47 180 -47 252q0 98 46 153.5t130 55.5q-172 0 -172 191q0 63 21 149q5 19 16.5 66t17 72t13 61.5t11 65t3.5 53.5q0 92 -42 136t-152 44h-72v84h102q146 0 204 -64t58 -184q0 -79 -20 -160q-7 -30 -20.5 -86t-21 -88 t-14 -72.5t-6.5 -68.5q0 -152 144 -152h63v-94h-65q-148 0 -148 -170q0 -62 47 -246q48 -184 48 -268q0 -120 -59.5 -184t-205.5 -64h-106v86z" />
<glyph unicode="~" horiz-adv-x="823" d="M117 1114q0 101 38.5 157t116.5 56q42 0 76.5 -18.5t73.5 -51.5q28 -24 42 -35t37 -22.5t42 -11.5q80 0 80 131h77q0 -209 -155 -209q-70 0 -152 70q-30 26 -42 35.5t-35.5 21.5t-43.5 12q-74 0 -77 -135h-78z" />
<glyph unicode="&#xa1;" horiz-adv-x="526" d="M178 1110q0 96 82 96q44 0 63 -21.5t19 -74.5q0 -51 -19.5 -73.5t-62.5 -22.5q-42 0 -62 23t-20 73zM209 4q0 135 2 213q0 47 6 434q3 193 8 238q12 -4 35 -4t35 4l4 -78q7 -311 8 -369q4 -304 4 -438v-272h-102v272z" />
<glyph unicode="&#xa2;" horiz-adv-x="944" d="M111 395v363q0 407 333 422v270h93v-270q305 -25 305 -369v-72h-103v68q0 158 -62.5 223.5t-193.5 65.5q-274 0 -274 -344v-351q0 -165 65 -247t201 -82q135 0 199.5 71.5t64.5 223.5v86h103v-91q0 -353 -305 -380v-297h-95v295q-331 21 -331 415z" />
<glyph unicode="&#xa3;" horiz-adv-x="1089" d="M47 133q0 71 49.5 115.5t132.5 44.5q84 0 195 -72q8 33 8 84q0 144 -63 309h-228v82h199q-3 9 -24 70.5t-27 79.5t-21 71t-20.5 83.5t-11 76t-5.5 86.5q0 151 84 236.5t230 85.5q152 0 228.5 -81.5t76.5 -238.5v-61h-102v59q0 234 -207 234q-98 0 -153.5 -62t-55.5 -172 q0 -34 2.5 -67t10 -72t12 -62.5t17.5 -70t17.5 -61.5t22 -69.5t20.5 -64.5h277v-82h-250q49 -178 49 -305q0 -73 -21 -131q46 -30 66.5 -42t59 -32t70 -28t63.5 -8q86 0 119.5 50.5t33.5 186.5v80h100v-94q0 -173 -55 -244.5t-184 -71.5q-42 0 -83 10.5t-82.5 33t-67.5 39.5 t-70 48q-36 -61 -93 -96t-126 -35q-193 0 -193 158zM131 133q0 -39 28.5 -61.5t82.5 -22.5q108 0 159 101q-102 71 -170 71q-100 0 -100 -88z" />
<glyph unicode="&#xa4;" horiz-adv-x="1017" d="M98 338l152 166q-60 85 -60 196v72q0 112 64 201l-145 160l63 65l143 -162q85 64 199 64q117 0 195 -60l137 158l69 -59l-143 -162q66 -87 66 -203v-72q0 -114 -62 -200l142 -156l-62 -63l-143 155q-85 -61 -199 -61t-199 61l-147 -164zM279 702q0 -103 66 -173t169 -70 q102 0 169 71t67 175v67q0 104 -66.5 174t-169.5 70q-102 0 -168.5 -70t-66.5 -174v-70z" />
<glyph unicode="&#xa5;" horiz-adv-x="892" d="M51 1450h105l272 -733l12 -66l15 66l284 733h105l-355 -870h277v-82h-279v-181h277v-79h-277v-238h-96v238h-260v79h260v181h-260v82h258z" />
<glyph unicode="&#xa6;" horiz-adv-x="415" d="M160 -240v863h98v-863h-98zM160 829v822h98v-822h-98z" />
<glyph unicode="&#xa7;" horiz-adv-x="907" d="M53 842v10q0 53 39 106t90 74q-57 60 -57 160v8q0 130 85 206.5t241 76.5q162 0 246.5 -73.5t84.5 -213.5v-86h-98v88q0 201 -235 201q-111 0 -169.5 -54t-58.5 -143v-8q0 -68 39 -107q12 -12 29.5 -24t32 -20.5t43 -20t43.5 -17.5t53.5 -20t54.5 -20q128 -52 160 -68 q85 -38 129.5 -91.5t44.5 -137.5v-17q0 -56 -31.5 -104.5t-75.5 -73.5q60 -57 60 -164v-14q0 -315 -344 -315q-357 0 -357 317v100h103v-96q0 -110 63.5 -170.5t192.5 -60.5q246 0 246 225v8q0 69 -41 107q-10 9 -23.5 18.5t-25 16.5t-32 16.5t-32.5 15.5t-39.5 16.5t-40 15 t-46 17t-46.5 17.5q-107 44 -174 78q-78 39 -116 89.5t-38 131.5zM143 862q0 -53 31 -96q30 -35 88.5 -65t177.5 -78q11 -4 46 -17.5t47.5 -18t40.5 -16t42 -18t34.5 -16.5t35.5 -19.5t29 -19.5q42 64 45 135v14q0 66 -41 107q-38 38 -101.5 68.5t-164.5 66.5 q-90 32 -147.5 58t-100.5 61q-25 -25 -43 -64t-19 -74v-8z" />
<glyph unicode="&#xa8;" horiz-adv-x="808" d="M195 1399q0 84 73 84q74 0 74 -86q0 -82 -74 -82q-73 0 -73 84zM451 1399q0 84 73 84q72 0 72 -86q0 -82 -72 -82q-38 0 -55.5 20t-17.5 64z" />
<glyph unicode="&#xa9;" horiz-adv-x="1331" d="M113 524v381q0 182 71 301q72 127 195 193.5t285 66.5q150 0 282 -63q130 -68 201.5 -191.5t71.5 -300.5v-385q0 -179 -74 -303q-71 -120 -194.5 -181.5t-282.5 -61.5t-289 59q-266 127 -266 485zM193 526q0 -225 128.5 -346t346.5 -121q214 0 341.5 121.5t127.5 349.5 v379q0 151 -62 260q-60 108 -165.5 164t-245.5 56q-139 0 -246 -58q-225 -123 -225 -428v-377zM408 559v332q0 303 264 303q132 0 196 -71.5t64 -217.5v-67h-82v65q0 215 -176 215q-185 0 -185 -227v-330q0 -119 43.5 -171t139.5 -52q92 0 136 50.5t44 164.5v90h82v-92 q0 -291 -262 -291q-134 0 -199 72t-65 227z" />
<glyph unicode="&#xaa;" horiz-adv-x="694" d="M74 817v23q0 97 80 170q34 28 75.5 48.5t122.5 51.5q40 16 56 22.5t42.5 20t36 24t18.5 27t9 35.5v25q0 63 -39 98t-119 35t-124.5 -41.5t-49.5 -110.5v-76h-92v76q5 105 74 167.5t192 62.5q119 0 182.5 -57.5t63.5 -157.5v-625h-80l-6 168q-27 -86 -88 -134t-149 -48 q-102 0 -153.5 52t-51.5 144zM172 827q0 -61 33.5 -96t99.5 -35q98 0 153.5 75t55.5 187l2 183q-13 -30 -44.5 -49.5t-100.5 -47.5q-64 -24 -95.5 -41t-56.5 -42q-47 -54 -47 -113v-21z" />
<glyph unicode="&#xab;" horiz-adv-x="962" d="M121 600v12l270 400h98l-274 -402l287 -395h-107zM469 600v16l266 396h101l-275 -398l297 -399h-104z" />
<glyph unicode="&#xac;" horiz-adv-x="1032" d="M94 823v92h803v-479h-96v387h-707z" />
<glyph unicode="&#xad;" horiz-adv-x="864" d="M117 571v97h635v-97h-635z" />
<glyph unicode="&#xae;" horiz-adv-x="886" d="M104 1118v15q0 156 94 248t244 92q95 0 172 -41q79 -39 123.5 -115.5t44.5 -181.5v-17q0 -108 -45 -182q-44 -73 -121 -113.5t-172 -40.5q-154 0 -247 88.5t-93 247.5zM168 1120q0 -131 75 -203.5t201 -72.5q124 0 199.5 72.5t75.5 203.5v10q0 132 -76.5 207.5 t-200.5 75.5q-123 0 -198.5 -76.5t-75.5 -206.5v-10zM315 958v353h142q135 0 135 -105q0 -71 -72 -92q35 -6 48.5 -25t13.5 -61v-51q0 -1 6 -19h-64l-1 7q-1 7 -1 12v51q0 37 -13 49.5t-60 12.5h-74v-132h-60zM375 1141h71q86 0 86 63q0 30 -18.5 41.5t-60.5 11.5h-78v-116z " />
<glyph unicode="&#xaf;" horiz-adv-x="804" d="M190 1341v82h426v-82h-426z" />
<glyph unicode="&#xb0;" horiz-adv-x="651" d="M92 1231v10q0 105 67.5 166t166.5 61q106 0 169.5 -60.5t63.5 -166.5v-10q0 -102 -63.5 -162.5t-171.5 -60.5q-107 0 -169.5 60t-62.5 163zM174 1233q0 -71 40 -110.5t110 -39.5q71 0 112 42t41 108v8q0 71 -42 112.5t-109 41.5q-66 0 -109 -41t-43 -113v-8z" />
<glyph unicode="&#xb1;" horiz-adv-x="933" d="M174 852v90h246v240h90v-240h252v-90h-252v-242h-90v242h-246zM176 393v90h586v-90h-586z" />
<glyph unicode="&#xb2;" horiz-adv-x="530" d="M74 739v56q0 65 30 123q10 17 23.5 34t24.5 29.5t30 30t28.5 25t32.5 26.5t29 24q53 41 81 82t28 91v26q0 107 -111 107q-112 0 -112 -121v-94h-78v96q0 89 49.5 137.5t140.5 48.5q93 0 141 -47t48 -127v-29q0 -58 -29 -108q-19 -29 -50 -61.5t-50 -48.5t-62 -52 q-107 -89 -114 -174h313v-74h-393z" />
<glyph unicode="&#xb3;" horiz-adv-x="544" d="M72 905v88h78v-86q0 -108 122 -108q64 0 91.5 27.5t27.5 86.5v41q0 61 -25 88t-85 27h-68v70h66q62 0 84 28.5t22 89.5v27q0 111 -113 111q-112 0 -112 -111v-67h-80v67q0 84 49 130t143 46t140.5 -45.5t46.5 -126.5v-31q0 -58 -20 -95.5t-70 -53.5q100 -25 100 -152v-47 q0 -86 -48.5 -133t-148.5 -47q-200 0 -200 176z" />
<glyph unicode="&#xb4;" horiz-adv-x="804" d="M324 1313l202 319h111l-229 -319h-84z" />
<glyph unicode="&#xb6;" horiz-adv-x="1101" d="M90 1032v19q0 187 105 293t305 106h446v-1450h-94v1364h-182v-1364h-95v637h-83q-194 -1 -298 102.5t-104 292.5zM188 1032q0 -146 80.5 -226.5t225.5 -80.5h81v639h-75q-150 0 -231 -83t-81 -230v-19z" />
<glyph unicode="&#xb7;" horiz-adv-x="497" d="M168 618q0 99 84 99q82 0 82 -99q0 -96 -84 -96q-44 0 -63 21.5t-19 74.5z" />
<glyph unicode="&#xb8;" horiz-adv-x="804" d="M172 -240h90q11 -100 137 -100q131 0 131 92q0 44 -31 63t-104 19h-47v176h80v-110q186 -3 186 -144q0 -78 -57 -123t-158 -45q-105 0 -160 43t-67 129z" />
<glyph unicode="&#xb9;" horiz-adv-x="403" d="M53 739v72h117v502q-25 -35 -96 -39v65q52 1 74 27.5t30 85.5h64v-641h112v-72h-301z" />
<glyph unicode="&#xba;" horiz-adv-x="714" d="M90 899v293q0 132 73.5 208.5t194.5 76.5q122 0 194.5 -76t72.5 -207v-293q0 -131 -71.5 -204.5t-195.5 -73.5q-130 0 -199 72.5t-69 203.5zM182 903q0 -93 44.5 -144.5t131.5 -51.5t132 51.5t45 144.5v289q0 93 -46.5 148t-130.5 55q-83 0 -129.5 -53t-46.5 -150v-289z " />
<glyph unicode="&#xbb;" horiz-adv-x="962" d="M109 215l297 399l-275 398h100l267 -396v-16l-283 -385h-106zM465 215l287 395l-275 402h101l268 -400v-12l-275 -385h-106z" />
<glyph unicode="&#xbc;" horiz-adv-x="1187" d="M100 37l432 637l35 -25l-366 -680zM129 739v72h117v502q-25 -35 -96 -39v65q52 1 74 27.5t30 85.5h63v-641h113v-72h-301zM612 162v59l283 492h70v-486h88v-65h-88v-162h-68v162h-285zM637 838l358 651l97 -62l-418 -612zM692 227h205v332l6 49l-12 -28z" />
<glyph unicode="&#xbd;" horiz-adv-x="1187" d="M100 37l432 637l35 -25l-366 -680zM127 739v72h117v502q-25 -35 -97 -39v65q52 1 74.5 28t30.5 85h63v-641h113v-72h-301zM637 838l358 651l97 -62l-418 -612zM700 0v55q0 63 31 123q9 15 19 28.5t22.5 27.5t22.5 24t26.5 25t25 22t27.5 22.5t25 20.5q53 41 81 81.5 t28 90.5v27q0 106 -111 106q-113 0 -113 -121v-94h-77v97q0 89 49.5 137.5t140.5 48.5q93 0 140.5 -46.5t47.5 -127.5v-29q0 -60 -28 -108q-19 -29 -50 -61.5t-50 -48.5t-62 -52q-51 -43 -81 -83.5t-34 -90.5h314v-74h-394z" />
<glyph unicode="&#xbe;" horiz-adv-x="1187" d="M82 905v88h78v-86q0 -108 123 -108q63 0 90.5 27.5t27.5 86.5v41q0 61 -25 88t-85 27h-68v70h66q62 0 84 28.5t22 89.5v27q0 55 -26.5 83t-85.5 28q-113 0 -113 -111v-67h-80v67q0 84 49.5 130t143.5 46t140 -45.5t46 -126.5v-31q0 -58 -20 -95.5t-70 -53.5 q100 -25 100 -152v-47q0 -180 -196 -180q-201 0 -201 176zM100 37l432 637l35 -25l-366 -680zM612 162v59l283 492h70v-486h88v-65h-88v-162h-68v162h-285zM637 838l358 651l97 -62l-418 -612zM692 227h205v332l6 49l-12 -28z" />
<glyph unicode="&#xbf;" horiz-adv-x="999" d="M150 29v104q0 91 24 152q21 54 54.5 94t84.5 86q27 25 76 74q80 87 80 227l2 127q24 -8 47 -8q11 0 29 3t20 5l2 -74v-63q0 -96 -24 -160q-22 -55 -56.5 -96t-87.5 -88q-43 -40 -71 -70q-80 -80 -80 -205v-102q0 -102 60.5 -162.5t187.5 -60.5q134 0 196 64.5t62 189.5 v190h100v-197q0 -162 -89.5 -250t-268.5 -88q-174 0 -261 84.5t-87 223.5zM432 1106q0 98 84 98q42 0 62 -22.5t20 -75.5q0 -50 -20.5 -73t-63.5 -23q-42 0 -62 23t-20 73z" />
<glyph unicode="&#xc0;" horiz-adv-x="952" d="M59 0l363 1450h96l377 -1450h-102l-88 356h-459l-86 -356h-101zM223 1868h113l178 -279h-84zM268 451h412l-180 727l-29 180l-31 -182z" />
<glyph unicode="&#xc1;" horiz-adv-x="952" d="M59 0l363 1450h96l377 -1450h-102l-88 356h-459l-86 -356h-101zM268 451h412l-180 727l-29 180l-31 -182zM428 1591l203 320h110l-229 -320h-84z" />
<glyph unicode="&#xc2;" horiz-adv-x="952" d="M59 0l363 1450h96l377 -1450h-102l-88 356h-459l-86 -356h-101zM238 1581l194 274h76l192 -274h-96l-135 201l-137 -201h-94zM268 451h412l-180 727l-29 180l-31 -182z" />
<glyph unicode="&#xc3;" horiz-adv-x="952" d="M59 0l363 1450h96l377 -1450h-102l-88 356h-459l-86 -356h-101zM186 1591q0 189 144 189q54 0 104 -29q13 -8 41.5 -28.5t43.5 -30t36.5 -18.5t38.5 -9q38 0 56 25.5t18 85.5h73q0 -189 -147 -189q-52 0 -102 29q-12 8 -40 28.5t-42 30t-36.5 18.5t-41.5 9q-38 0 -55 -26 t-17 -85h-74zM268 451h412l-180 727l-29 180l-31 -182z" />
<glyph unicode="&#xc4;" horiz-adv-x="952" d="M59 0l363 1450h96l377 -1450h-102l-88 356h-459l-86 -356h-101zM262 1667q0 84 74 84t74 -86q0 -82 -74 -82t-74 84zM268 451h412l-180 727l-29 180l-31 -182zM518 1667q0 84 74 84q72 0 72 -86q0 -82 -72 -82q-38 0 -56 20t-18 64z" />
<glyph unicode="&#xc5;" horiz-adv-x="952" d="M59 0l363 1450h96l377 -1450h-102l-88 356h-459l-86 -356h-101zM268 451h412l-180 727l-29 180l-31 -182zM287 1749q0 79 50 128.5t128 49.5q85 0 133.5 -47t48.5 -131q0 -83 -49 -130.5t-133 -47.5q-80 0 -129 48t-49 130zM365 1749q0 -45 28 -74.5t72 -29.5q46 0 75 28 t29 76q0 47 -28.5 75.5t-75.5 28.5q-45 0 -72.5 -28.5t-27.5 -75.5z" />
<glyph unicode="&#xc6;" horiz-adv-x="1353" d="M37 0l502 1450h725v-90h-611l72 -586h465v-92h-453l74 -590h469v-92h-553l-43 358h-422l-123 -358h-102zM291 446h383l-92 756l-4 148l-31 -152z" />
<glyph unicode="&#xc7;" horiz-adv-x="1021" d="M127 434v572q0 226 100 343t295 117q204 0 300 -113t96 -347v-72h-107v67q0 192 -67 283.5t-222 91.5q-151 0 -222 -94t-71 -281v-563q0 -187 71 -275.5t222 -88.5t221 88t70 276v117h105v-121q0 -218 -87 -329t-262 -123v-105q187 -3 187 -143q0 -78 -57 -123t-158 -45 q-204 0 -228 172h90q11 -100 138 -100q131 0 131 92q0 44 -31 63t-104 19h-48v168q-183 8 -272.5 119t-89.5 335z" />
<glyph unicode="&#xc8;" horiz-adv-x="886" d="M156 0v1450h641v-90h-543v-563h471v-92h-471v-613h561v-92h-659zM246 1868h112l179 -279h-84z" />
<glyph unicode="&#xc9;" horiz-adv-x="886" d="M156 0v1450h641v-90h-543v-563h471v-92h-471v-613h561v-92h-659zM438 1591l203 320h111l-230 -320h-84z" />
<glyph unicode="&#xca;" horiz-adv-x="886" d="M156 0v1450h641v-90h-543v-563h471v-92h-471v-613h561v-92h-659zM254 1589l195 275h75l193 -275h-96l-136 201l-137 -201h-94z" />
<glyph unicode="&#xcb;" horiz-adv-x="886" d="M156 0v1450h641v-90h-543v-563h471v-92h-471v-613h561v-92h-659zM283 1677q0 84 73 84q74 0 74 -86q0 -82 -74 -82q-73 0 -73 84zM539 1677q0 84 73 84q72 0 72 -86q0 -82 -72 -82q-38 0 -55.5 20t-17.5 64z" />
<glyph unicode="&#xcc;" horiz-adv-x="651" d="M68 0v92h211v1268h-211v90h516v-90h-209v-1268h209v-92h-516zM82 1868h113l178 -279h-84z" />
<glyph unicode="&#xcd;" horiz-adv-x="651" d="M68 0v92h211v1268h-211v90h516v-90h-209v-1268h209v-92h-516zM279 1591l202 320h111l-230 -320h-83z" />
<glyph unicode="&#xce;" horiz-adv-x="651" d="M68 0v92h211v1268h-211v90h516v-90h-209v-1268h209v-92h-516zM96 1589l195 275h76l192 -275h-96l-135 201l-138 -201h-94z" />
<glyph unicode="&#xcf;" horiz-adv-x="651" d="M68 0v92h211v1268h-211v90h516v-90h-209v-1268h209v-92h-516zM123 1677q0 84 74 84q73 0 73 -86q0 -82 -73 -82q-74 0 -74 84zM379 1677q0 84 74 84q71 0 71 -86q0 -82 -71 -82q-38 0 -56 20t-18 64z" />
<glyph unicode="&#xd0;" horiz-adv-x="1048" d="M23 676v90h147v684h311q210 0 326.5 -111t116.5 -344v-536q0 -235 -116.5 -347t-324.5 -112h-313v676h-147zM268 90h213q162 0 252 92t90 281v528q0 371 -346 371h-209v-596h205v-90h-205v-586z" />
<glyph unicode="&#xd1;" horiz-adv-x="1089" d="M156 0v1450h90l534 -1112l76 -199l-16 221v1090h94v-1450h-86l-537 1120l-78 213l17 -223v-1110h-94zM297 1602q0 93 34 140.5t109 47.5q55 0 105 -29q13 -8 41.5 -28.5t43.5 -30t36.5 -18.5t38.5 -9q38 0 55.5 25.5t17.5 85.5h74q0 -189 -147 -189q-53 0 -103 29 q-12 8 -40 28.5t-42 30t-36.5 18.5t-41.5 9q-38 0 -54.5 -25.5t-16.5 -84.5h-74z" />
<glyph unicode="&#xd2;" horiz-adv-x="1052" d="M127 434v570q0 226 102 344t297 118q196 0 297 -117t101 -345v-570q0 -233 -100 -343.5t-298 -110.5t-298.5 110.5t-100.5 343.5zM229 438q0 -187 73 -275.5t224 -88.5t224 88.5t73 275.5v561q0 377 -297 377t-297 -377v-561zM285 1884h112l178 -278h-83z" />
<glyph unicode="&#xd3;" horiz-adv-x="1052" d="M127 434v570q0 226 102 344t297 118q196 0 297 -117t101 -345v-570q0 -233 -100 -343.5t-298 -110.5t-298.5 110.5t-100.5 343.5zM229 438q0 -187 73 -275.5t224 -88.5t224 88.5t73 275.5v561q0 377 -297 377t-297 -377v-561zM496 1606l202 319h111l-229 -319h-84z" />
<glyph unicode="&#xd4;" horiz-adv-x="1052" d="M127 434v570q0 226 102 344t297 118q196 0 297 -117t101 -345v-570q0 -233 -100 -343.5t-298 -110.5t-298.5 110.5t-100.5 343.5zM229 438q0 -187 73 -275.5t224 -88.5t224 88.5t73 275.5v561q0 377 -297 377t-297 -377v-561zM299 1604l195 274h75l193 -274h-96l-136 200 l-137 -200h-94z" />
<glyph unicode="&#xd5;" horiz-adv-x="1052" d="M127 434v570q0 226 102 344t297 118q196 0 297 -117t101 -345v-570q0 -233 -100 -343.5t-298 -110.5t-298.5 110.5t-100.5 343.5zM229 438q0 -187 73 -275.5t224 -88.5t224 88.5t73 275.5v561q0 377 -297 377t-297 -377v-561zM248 1610q0 93 34 140.5t109 47.5 q55 0 105 -29q13 -9 41.5 -29t43 -29.5t36 -18.5t38.5 -9q38 0 56 25.5t18 85.5h74q0 -188 -148 -188q-54 0 -102 28q-12 8 -40 28.5t-42 30t-36.5 18.5t-41.5 9q-38 0 -54.5 -25.5t-16.5 -84.5h-74z" />
<glyph unicode="&#xd6;" horiz-adv-x="1052" d="M127 434v570q0 226 102 344t297 118q196 0 297 -117t101 -345v-570q0 -233 -100 -343.5t-298 -110.5t-298.5 110.5t-100.5 343.5zM229 438q0 -187 73 -275.5t224 -88.5t224 88.5t73 275.5v561q0 377 -297 377t-297 -377v-561zM324 1692q0 84 73 84q74 0 74 -86 q0 -82 -74 -82q-73 0 -73 84zM580 1692q0 84 73 84q72 0 72 -86q0 -82 -72 -82q-38 0 -55.5 20t-17.5 64z" />
<glyph unicode="&#xd7;" horiz-adv-x="929" d="M154 494l245 249l-219 226l60 61l219 -227l231 235l60 -61l-232 -236l242 -247l-62 -62l-239 250l-246 -250z" />
<glyph unicode="&#xd8;" horiz-adv-x="1058" d="M127 434v570q0 227 102 345.5t299 118.5q98 0 166 -26l56 184h79l-65 -219q166 -109 166 -403v-570q0 -233 -101 -345t-301 -112q-91 0 -161 23l-56 -184h-82l68 217q-170 105 -170 401zM229 438q0 -212 99 -301l340 1215q-63 26 -140 26q-299 0 -299 -377v-563zM395 96 q59 -24 133 -24q153 0 227 89.5t74 276.5v563q0 210 -94 304z" />
<glyph unicode="&#xd9;" horiz-adv-x="1017" d="M145 412v1038h101v-1034q0 -178 62.5 -259t201.5 -81q138 0 200 81t62 259v1034h100v-1038q0 -219 -89.5 -325.5t-272.5 -106.5q-188 0 -276.5 105.5t-88.5 326.5zM264 1851h113l178 -278h-84z" />
<glyph unicode="&#xda;" horiz-adv-x="1017" d="M145 412v1038h101v-1034q0 -178 62.5 -259t201.5 -81q138 0 200 81t62 259v1034h100v-1038q0 -219 -89.5 -325.5t-272.5 -106.5q-188 0 -276.5 105.5t-88.5 326.5zM461 1575l203 319h110l-229 -319h-84z" />
<glyph unicode="&#xdb;" horiz-adv-x="1017" d="M145 412v1038h101v-1034q0 -178 62.5 -259t201.5 -81q138 0 200 81t62 259v1034h100v-1038q0 -219 -89.5 -325.5t-272.5 -106.5q-188 0 -276.5 105.5t-88.5 326.5zM276 1573l195 274h76l192 -274h-96l-135 201l-137 -201h-95z" />
<glyph unicode="&#xdc;" horiz-adv-x="1017" d="M145 412v1038h101v-1034q0 -178 62.5 -259t201.5 -81q138 0 200 81t62 259v1034h100v-1038q0 -219 -89.5 -325.5t-272.5 -106.5q-188 0 -276.5 105.5t-88.5 326.5zM303 1661q0 84 74 84t74 -86q0 -82 -74 -82t-74 84zM559 1661q0 84 74 84q72 0 72 -86q0 -82 -72 -82 q-38 0 -56 20t-18 64z" />
<glyph unicode="&#xdd;" horiz-adv-x="892" d="M51 1450h105l272 -770l12 -74l15 74l284 770h105l-355 -932v-518h-100v520zM401 1581l203 320h111l-230 -320h-84z" />
<glyph unicode="&#xde;" horiz-adv-x="944" d="M156 0v1450h98v-248h215q199 0 290 -82t91 -260v-207q0 -356 -375 -356h-221v-297h-98zM254 387h217q281 0 281 266v205q0 133 -68.5 194.5t-216.5 61.5h-213v-727z" />
<glyph unicode="&#xdf;" horiz-adv-x="1030" d="M145 0v1184q0 179 97 269.5t280 90.5q180 0 275.5 -89t95.5 -259v-76q0 -248 -205 -309q125 -27 185.5 -108.5t60.5 -235.5v-92q0 -381 -363 -381q-38 0 -118 10v92q72 -8 110 -8q130 0 200.5 73.5t70.5 221.5v82q0 160 -75 228.5t-235 68.5h-55v90h51q135 0 206 66.5 t71 199.5v74q0 264 -275 264q-280 0 -280 -280v-1176h-97z" />
<glyph unicode="&#xe0;" d="M88 266v29q0 165 127 262q45 34 95.5 56t164.5 61q47 15 129 49q62 26 93.5 62t31.5 92v10q0 211 -252 211q-126 0 -194 -62.5t-68 -177.5v-94h-96v98q0 149 93 234.5t265 85.5q176 0 260 -79.5t84 -219.5v-883h-76l-14 279q-33 -139 -122 -218t-224 -79 q-146 0 -221.5 73t-75.5 211zM193 279q0 -100 55.5 -155.5t161.5 -55.5q104 0 176 57q70 57 106.5 151t36.5 207v262q-11 -24 -29.5 -42.5t-52 -35.5t-59 -27.5t-80.5 -31.5q-93 -30 -138 -51.5t-87 -54.5q-90 -76 -90 -209v-14zM240 1599h112l178 -278h-84z" />
<glyph unicode="&#xe1;" d="M88 266v29q0 165 127 262q45 34 95.5 56t164.5 61q47 15 129 49q62 26 93.5 62t31.5 92v10q0 211 -252 211q-126 0 -194 -62.5t-68 -177.5v-94h-96v98q0 149 93 234.5t265 85.5q176 0 260 -79.5t84 -219.5v-883h-76l-14 279q-33 -139 -122 -218t-224 -79 q-146 0 -221.5 73t-75.5 211zM193 279q0 -100 55.5 -155.5t161.5 -55.5q104 0 176 57q70 57 106.5 151t36.5 207v262q-11 -24 -29.5 -42.5t-52 -35.5t-59 -27.5t-80.5 -31.5q-93 -30 -138 -51.5t-87 -54.5q-90 -76 -90 -209v-14zM432 1321l203 319h110l-229 -319h-84z" />
<glyph unicode="&#xe2;" d="M88 266v29q0 165 127 262q45 34 95.5 56t164.5 61q47 15 129 49q62 26 93.5 62t31.5 92v10q0 211 -252 211q-126 0 -194 -62.5t-68 -177.5v-94h-96v98q0 149 93 234.5t265 85.5q176 0 260 -79.5t84 -219.5v-883h-76l-14 279q-33 -139 -122 -218t-224 -79 q-146 0 -221.5 73t-75.5 211zM193 279q0 -100 55.5 -155.5t161.5 -55.5q104 0 176 57q70 57 106.5 151t36.5 207v262q-11 -24 -29.5 -42.5t-52 -35.5t-59 -27.5t-80.5 -31.5q-93 -30 -138 -51.5t-87 -54.5q-90 -76 -90 -209v-14zM254 1319l195 274h75l193 -274h-96l-136 201 l-137 -201h-94z" />
<glyph unicode="&#xe3;" d="M88 266v29q0 165 127 262q45 34 95.5 56t164.5 61q47 15 129 49q62 26 93.5 62t31.5 92v10q0 211 -252 211q-126 0 -194 -62.5t-68 -177.5v-94h-96v98q0 149 93 234.5t265 85.5q176 0 260 -79.5t84 -219.5v-883h-76l-14 279q-33 -139 -122 -218t-224 -79 q-146 0 -221.5 73t-75.5 211zM193 279q0 -100 55.5 -155.5t161.5 -55.5q104 0 176 57q70 57 106.5 151t36.5 207v262q-11 -24 -29.5 -42.5t-52 -35.5t-59 -27.5t-80.5 -31.5q-93 -30 -138 -51.5t-87 -54.5q-90 -76 -90 -209v-14zM203 1325q0 93 34 140.5t109 47.5 q57 0 105 -28q13 -9 41.5 -29t43 -29.5t36 -18.5t38.5 -9q38 0 56 25t18 85h74q0 -188 -148 -188q-52 0 -102 29q-12 8 -40 28.5t-42 30t-36.5 18.5t-41.5 9q-38 0 -55 -26t-17 -85h-73z" />
<glyph unicode="&#xe4;" d="M88 266v29q0 165 127 262q45 34 95.5 56t164.5 61q47 15 129 49q62 26 93.5 62t31.5 92v10q0 211 -252 211q-126 0 -194 -62.5t-68 -177.5v-94h-96v98q0 149 93 234.5t265 85.5q176 0 260 -79.5t84 -219.5v-883h-76l-14 279q-33 -139 -122 -218t-224 -79 q-146 0 -221.5 73t-75.5 211zM193 279q0 -100 55.5 -155.5t161.5 -55.5q104 0 176 57q70 57 106.5 151t36.5 207v262q-11 -24 -29.5 -42.5t-52 -35.5t-59 -27.5t-80.5 -31.5q-93 -30 -138 -51.5t-87 -54.5q-90 -76 -90 -209v-14zM279 1407q0 84 73 84q74 0 74 -86 q0 -82 -74 -82q-73 0 -73 84zM535 1407q0 84 73 84q72 0 72 -86q0 -82 -72 -82q-38 0 -55.5 20t-17.5 64z" />
<glyph unicode="&#xe5;" d="M88 266v29q0 165 127 262q45 34 95.5 56t164.5 61q47 15 129 49q62 26 93.5 62t31.5 92v10q0 211 -252 211q-126 0 -194 -62.5t-68 -177.5v-94h-96v98q0 149 93 234.5t265 85.5q176 0 260 -79.5t84 -219.5v-883h-76l-14 279q-33 -139 -122 -218t-224 -79 q-146 0 -221.5 73t-75.5 211zM193 279q0 -100 55.5 -155.5t161.5 -55.5q104 0 176 57q70 57 106.5 151t36.5 207v262q-11 -24 -29.5 -42.5t-52 -35.5t-59 -27.5t-80.5 -31.5q-93 -30 -138 -51.5t-87 -54.5q-90 -76 -90 -209v-14zM299 1499q0 79 50 128.5t128 49.5 q85 0 133.5 -47t48.5 -131q0 -83 -49 -130.5t-133 -47.5q-80 0 -129 48t-49 130zM377 1499q0 -45 28 -74.5t72 -29.5q46 0 75.5 28t29.5 76q0 47 -29 76t-76 29q-44 0 -72 -29t-28 -76z" />
<glyph unicode="&#xe6;" horiz-adv-x="1572" d="M88 266v31q0 165 125 260q45 33 95.5 55t166.5 62q23 8 129 51q62 26 93.5 61t31.5 88v15q0 211 -252 211q-126 0 -194 -62.5t-68 -179.5v-94h-96v100q0 148 93 233t265 85q262 0 318 -181q82 181 311 181q364 0 364 -414v-211h-649v-164q0 -321 281 -321q268 0 268 258 v65h100v-65q0 -169 -97.5 -259.5t-272.5 -90.5q-149 0 -239 71t-120 201q-37 -128 -127.5 -199t-226.5 -71q-146 0 -222.5 73t-76.5 211zM193 281q0 -102 55.5 -157.5t159.5 -55.5q107 0 176 57q71 57 108 151.5t37 206.5v262q-11 -24 -29.5 -42.5t-52 -35.5t-59 -27.5 t-80.5 -31.5q-93 -30 -138 -51.5t-87 -54.5q-90 -76 -90 -207v-14zM821 641h553v127q0 169 -67 248.5t-203 79.5q-138 0 -210.5 -84t-72.5 -254v-117z" />
<glyph unicode="&#xe7;" horiz-adv-x="937" d="M111 395v363q0 217 93 320.5t277 103.5q174 0 265.5 -88.5t91.5 -282.5v-72h-103v68q0 158 -61.5 223.5t-192.5 65.5q-272 0 -272 -344v-351q0 -165 64 -247t200 -82q135 0 198.5 71.5t63.5 223.5v86h103v-91q0 -353 -314 -380v-105q187 -3 187 -143q0 -78 -57 -123 t-158 -45q-204 0 -228 172h90q11 -100 138 -100q131 0 131 92q0 44 -31 63t-104 19h-48v168q-333 15 -333 415z" />
<glyph unicode="&#xe8;" horiz-adv-x="954" d="M111 383v375q0 209 97 316.5t279 107.5t273.5 -105.5t91.5 -308.5v-207h-647v-172q0 -317 280 -317q126 0 196.5 63.5t70.5 194.5v65h100v-59q0 -173 -95 -264.5t-272 -91.5q-191 0 -282.5 101t-91.5 302zM205 643h549v125q0 169 -65.5 248.5t-201.5 79.5 q-282 0 -282 -338v-115zM252 1602h113l178 -279h-84z" />
<glyph unicode="&#xe9;" horiz-adv-x="954" d="M111 383v375q0 209 97 316.5t279 107.5t273.5 -105.5t91.5 -308.5v-207h-647v-172q0 -317 280 -317q126 0 196.5 63.5t70.5 194.5v65h100v-59q0 -173 -95 -264.5t-272 -91.5q-191 0 -282.5 101t-91.5 302zM205 643h549v125q0 169 -65.5 248.5t-201.5 79.5 q-282 0 -282 -338v-115zM442 1323l203 319h111l-230 -319h-84z" />
<glyph unicode="&#xea;" horiz-adv-x="954" d="M111 383v375q0 209 97 316.5t279 107.5t273.5 -105.5t91.5 -308.5v-207h-647v-172q0 -317 280 -317q126 0 196.5 63.5t70.5 194.5v65h100v-59q0 -173 -95 -264.5t-272 -91.5q-191 0 -282.5 101t-91.5 302zM205 643h549v125q0 169 -65.5 248.5t-201.5 79.5 q-282 0 -282 -338v-115zM260 1321l195 274h75l193 -274h-96l-135 201l-138 -201h-94z" />
<glyph unicode="&#xeb;" horiz-adv-x="954" d="M111 383v375q0 209 97 316.5t279 107.5t273.5 -105.5t91.5 -308.5v-207h-647v-172q0 -317 280 -317q126 0 196.5 63.5t70.5 194.5v65h100v-59q0 -173 -95 -264.5t-272 -91.5q-191 0 -282.5 101t-91.5 302zM205 643h549v125q0 169 -65.5 248.5t-201.5 79.5 q-282 0 -282 -338v-115zM285 1409q0 84 73 84q74 0 74 -86q0 -82 -74 -82q-73 0 -73 84zM541 1409q0 84 73 84q72 0 72 -86q0 -82 -72 -82q-38 0 -55.5 20t-17.5 64z" />
<glyph unicode="&#xec;" horiz-adv-x="389" d="M-53 1581h112l179 -278h-84zM145 0v1163h99v-1163h-99z" />
<glyph unicode="&#xed;" horiz-adv-x="389" d="M145 0v1163h99v-1163h-99zM156 1313l202 319h111l-229 -319h-84z" />
<glyph unicode="&#xee;" horiz-adv-x="389" d="M-37 1300l195 275h75l193 -275h-96l-135 201l-138 -201h-94zM145 0v1163h99v-1163h-99z" />
<glyph unicode="&#xef;" horiz-adv-x="389" d="M-12 1389q0 84 73 84q74 0 74 -87q0 -81 -74 -81q-73 0 -73 84zM145 0v1163h99v-1163h-99zM244 1389q0 84 73 84q72 0 72 -87q0 -81 -72 -81q-38 0 -55.5 20t-17.5 64z" />
<glyph unicode="&#xf0;" horiz-adv-x="972" d="M111 369v413q0 190 93.5 289.5t258.5 99.5q214 0 287 -184q-39 205 -224 387l-137 -106h-117l201 155q-88 79 -203 152h148q79 -52 125 -98l127 98h114l-188 -148q260 -254 260 -639v-403q0 -199 -95 -302t-278 -103q-181 0 -276.5 100.5t-95.5 288.5zM211 373 q0 -142 68.5 -221.5t203.5 -79.5q138 0 206.5 80t68.5 233v397q0 137 -69.5 219t-203.5 82q-130 0 -202 -78t-72 -223v-409z" />
<glyph unicode="&#xf1;" horiz-adv-x="987" d="M145 0v1163h76l15 -225q27 116 102.5 180t196.5 64q317 0 317 -375v-807h-98v797q0 149 -57 223t-183 74q-132 0 -202 -91.5t-70 -257.5v-745h-97zM240 1323q0 93 34 140.5t109 47.5q56 0 104 -28q13 -8 41.5 -28.5t43.5 -30t36.5 -18.5t38.5 -9q38 0 56 25t18 85h74 q0 -188 -148 -188q-52 0 -102 29q-12 8 -40 28.5t-42 30t-36.5 18.5t-41.5 9q-38 0 -55 -26t-17 -85h-73z" />
<glyph unicode="&#xf2;" horiz-adv-x="972" d="M111 385v377q0 213 96.5 316.5t275.5 103.5q371 0 371 -420v-377q0 -202 -95.5 -303.5t-275.5 -101.5q-372 0 -372 405zM209 391q0 -319 274 -319q273 0 273 319v367q0 338 -273 338q-274 0 -274 -338v-367zM242 1597h112l178 -278h-83z" />
<glyph unicode="&#xf3;" horiz-adv-x="972" d="M111 385v377q0 213 96.5 316.5t275.5 103.5q371 0 371 -420v-377q0 -202 -95.5 -303.5t-275.5 -101.5q-372 0 -372 405zM209 391q0 -319 274 -319q273 0 273 319v367q0 338 -273 338q-274 0 -274 -338v-367zM440 1321l203 319h111l-230 -319h-84z" />
<glyph unicode="&#xf4;" horiz-adv-x="972" d="M111 385v377q0 213 96.5 316.5t275.5 103.5q371 0 371 -420v-377q0 -202 -95.5 -303.5t-275.5 -101.5q-372 0 -372 405zM209 391q0 -319 274 -319q273 0 273 319v367q0 338 -273 338q-274 0 -274 -338v-367zM256 1319l195 274h75l193 -274h-96l-136 201l-137 -201h-94z " />
<glyph unicode="&#xf5;" horiz-adv-x="972" d="M111 385v377q0 213 96.5 316.5t275.5 103.5q371 0 371 -420v-377q0 -202 -95.5 -303.5t-275.5 -101.5q-372 0 -372 405zM205 1323q0 93 34 140.5t109 47.5q57 0 105 -28q13 -9 41.5 -29t43 -29.5t36 -18.5t38.5 -9q38 0 56 25t18 85h74q0 -188 -148 -188q-52 0 -102 29 q-12 8 -40 28.5t-42 30t-36.5 18.5t-41.5 9q-38 0 -54.5 -26t-16.5 -85h-74zM209 391q0 -319 274 -319q273 0 273 319v367q0 338 -273 338q-274 0 -274 -338v-367z" />
<glyph unicode="&#xf6;" horiz-adv-x="972" d="M111 385v377q0 213 96.5 316.5t275.5 103.5q371 0 371 -420v-377q0 -202 -95.5 -303.5t-275.5 -101.5q-372 0 -372 405zM209 391q0 -319 274 -319q273 0 273 319v367q0 338 -273 338q-274 0 -274 -338v-367zM283 1407q0 84 73 84q74 0 74 -86q0 -82 -74 -82q-73 0 -73 84 zM539 1407q0 84 73 84q72 0 72 -86q0 -82 -72 -82q-38 0 -55.5 20t-17.5 64z" />
<glyph unicode="&#xf7;" horiz-adv-x="933" d="M141 672v90h650v-90h-650zM391 444q0 74 70 74q67 0 67 -76q0 -38 -16 -54.5t-51 -16.5q-70 0 -70 73zM395 987q0 74 68 74q67 0 67 -76q0 -72 -69 -72q-33 0 -49.5 17t-16.5 57z" />
<glyph unicode="&#xf8;" horiz-adv-x="972" d="M111 385v377q0 213 96.5 316.5t275.5 103.5q88 0 150 -23l55 176h74l-66 -207q158 -94 158 -366v-377q0 -202 -95.5 -303.5t-275.5 -101.5q-69 0 -131 16l-55 -180h-78l66 207q-174 89 -174 362zM209 391q0 -197 106 -272l291 954q-50 23 -123 23q-274 0 -274 -338v-367z M379 86q54 -14 104 -14q273 0 273 319v367q0 189 -88 274z" />
<glyph unicode="&#xf9;" d="M139 350v813h99v-801q0 -290 225 -290q120 0 186 91.5t66 254.5v745h98v-1163h-78l-12 225q-27 -116 -99 -179.5t-184 -63.5q-301 0 -301 368zM233 1554h113l178 -278h-84z" />
<glyph unicode="&#xfa;" d="M139 350v813h99v-801q0 -290 225 -290q120 0 186 91.5t66 254.5v745h98v-1163h-78l-12 225q-27 -116 -99 -179.5t-184 -63.5q-301 0 -301 368zM426 1278l203 319h110l-229 -319h-84z" />
<glyph unicode="&#xfb;" d="M139 350v813h99v-801q0 -290 225 -290q120 0 186 91.5t66 254.5v745h98v-1163h-78l-12 225q-27 -116 -99 -179.5t-184 -63.5q-301 0 -301 368zM246 1292l194 275h76l193 -275h-97l-135 201l-137 -201h-94z" />
<glyph unicode="&#xfc;" d="M139 350v813h99v-801q0 -290 225 -290q120 0 186 91.5t66 254.5v745h98v-1163h-78l-12 225q-27 -116 -99 -179.5t-184 -63.5q-301 0 -301 368zM270 1380q0 84 74 84t74 -86q0 -82 -74 -82t-74 84zM526 1380q0 84 74 84q72 0 72 -86q0 -82 -72 -82q-38 0 -56 20t-18 64z " />
<glyph unicode="&#xfd;" horiz-adv-x="866" d="M57 1163h101l266 -927l22 -115l19 119l250 923h100l-344 -1224q-41 -119 -72 -162q-34 -57 -89.5 -78t-159.5 -21h-58v93h51q75 0 115 12q42 13 69 51t54 117l16 67zM389 1280l203 319h110l-229 -319h-84z" />
<glyph unicode="&#xfe;" horiz-adv-x="1005" d="M145 -403v1935h95v-584q32 112 107 173t194 61q172 0 260 -106t88 -331v-333q0 -212 -92.5 -321t-264.5 -109q-230 0 -292 217v-602h-95zM238 416q0 -162 69.5 -253t204.5 -91q279 0 279 342v327q0 181 -67 268t-202 87q-138 0 -211 -97t-73 -264v-319z" />
<glyph unicode="&#xff;" horiz-adv-x="866" d="M57 1163h101l266 -927l22 -115l19 119l250 923h100l-344 -1224q-41 -119 -72 -162q-34 -57 -89.5 -78t-159.5 -21h-58v93h51q75 0 115 12q42 13 69 51t54 117l16 67zM231 1374q0 84 74 84t74 -86q0 -82 -74 -82t-74 84zM487 1374q0 84 74 84q72 0 72 -86q0 -82 -72 -82 q-38 0 -56 20t-18 64z" />
<glyph unicode="&#x152;" horiz-adv-x="1550" d="M127 434v570q0 225 99.5 343.5t287.5 118.5q126 0 199 -51t106 -155v190h641v-90h-545v-563h474v-92h-474v-613h564v-92h-660v182q-32 -104 -106 -153t-201 -49q-385 0 -385 454zM229 438q0 -187 73 -275.5t224 -88.5t224 88.5t73 275.5v561q0 377 -297 377t-297 -377 v-561z" />
<glyph unicode="&#x153;" horiz-adv-x="1605" d="M111 385v377q0 213 95 316.5t273 103.5q265 0 326 -228q70 228 334 228q179 0 270.5 -106t91.5 -308v-211h-649v-166q0 -319 281 -319q127 0 198.5 62.5t71.5 195.5v65h98v-65q0 -168 -96.5 -259t-267.5 -91q-268 0 -334 213q-64 -213 -326 -213q-178 0 -272 101t-94 304 zM209 391q0 -319 274 -319q273 0 273 319v367q0 338 -273 338q-274 0 -274 -338v-367zM852 641h553v127q0 169 -67 248.5t-203 79.5q-138 0 -210.5 -84t-72.5 -254v-117z" />
<glyph unicode="&#x178;" horiz-adv-x="892" d="M51 1450h105l272 -770l12 -74l15 74l284 770h105l-355 -932v-518h-100v520zM244 1667q0 84 73 84q74 0 74 -86q0 -82 -74 -82q-73 0 -73 84zM500 1667q0 84 73 84q72 0 72 -86q0 -82 -72 -82q-38 0 -55.5 20t-17.5 64z" />
<glyph unicode="&#x2c6;" horiz-adv-x="804" d="M170 1311l195 274h75l193 -274h-96l-136 200l-137 -200h-94z" />
<glyph unicode="&#x2dc;" horiz-adv-x="804" d="M127 1315q0 93 34 140.5t109 47.5q57 0 105 -28q13 -8 41.5 -28.5t43.5 -30t36.5 -18.5t38.5 -9q38 0 55.5 25t17.5 85h74q0 -188 -147 -188q-55 0 -103 28q-12 8 -40 28.5t-42 30t-36.5 18.5t-41.5 9q-38 0 -54.5 -25.5t-16.5 -84.5h-74z" />
<glyph unicode="&#x2000;" horiz-adv-x="963" />
<glyph unicode="&#x2001;" horiz-adv-x="1927" />
<glyph unicode="&#x2002;" horiz-adv-x="963" />
<glyph unicode="&#x2003;" horiz-adv-x="1927" />
<glyph unicode="&#x2004;" horiz-adv-x="642" />
<glyph unicode="&#x2005;" horiz-adv-x="481" />
<glyph unicode="&#x2006;" horiz-adv-x="321" />
<glyph unicode="&#x2007;" horiz-adv-x="321" />
<glyph unicode="&#x2008;" horiz-adv-x="240" />
<glyph unicode="&#x2009;" horiz-adv-x="385" />
<glyph unicode="&#x200a;" horiz-adv-x="107" />
<glyph unicode="&#x2010;" horiz-adv-x="864" d="M117 571v97h635v-97h-635z" />
<glyph unicode="&#x2011;" horiz-adv-x="864" d="M117 571v97h635v-97h-635z" />
<glyph unicode="&#x2012;" horiz-adv-x="864" d="M117 571v97h635v-97h-635z" />
<glyph unicode="&#x2013;" horiz-adv-x="856" d="M117 571v97h622v-97h-622z" />
<glyph unicode="&#x2014;" horiz-adv-x="1130" d="M117 571v97h895v-97h-895z" />
<glyph unicode="&#x2018;" horiz-adv-x="466" d="M150 1217q0 187 145 256l22 -52q-92 -57 -100 -170q14 11 33 11q34 0 49.5 -17.5t15.5 -68.5q0 -93 -79 -93q-46 0 -66 29.5t-20 104.5z" />
<glyph unicode="&#x2019;" horiz-adv-x="466" d="M154 1133q90 57 98 167q-13 -10 -31 -10q-33 0 -49 19t-16 67q0 51 18.5 72.5t58.5 21.5q46 0 66 -29.5t20 -105.5q0 -93 -38 -158t-107 -96z" />
<glyph unicode="&#x201a;" horiz-adv-x="475" d="M156 -168q90 57 98 170q-10 -10 -31 -10q-33 0 -49 19t-16 67q0 94 78 94q46 0 66 -29.5t20 -105.5q0 -187 -146 -254z" />
<glyph unicode="&#x201c;" horiz-adv-x="739" d="M150 1217q0 187 145 256l22 -52q-92 -57 -100 -170q14 11 33 11q34 0 49.5 -17.5t15.5 -68.5q0 -93 -79 -93q-46 0 -66 29.5t-20 104.5zM422 1217q0 187 145 256l23 -52q-93 -57 -101 -170q14 11 33 11q34 0 50 -17.5t16 -68.5q0 -93 -80 -93q-46 0 -66 29.5t-20 104.5z " />
<glyph unicode="&#x201d;" horiz-adv-x="739" d="M152 1133q92 56 100 167q-17 -10 -33 -10q-33 0 -49 19t-16 67q0 51 19.5 72.5t59.5 21.5q46 0 66 -29.5t20 -105.5q0 -91 -38.5 -157t-106.5 -97zM424 1133q92 56 100 167q-17 -10 -32 -10q-33 0 -49.5 19t-16.5 67q0 51 20 72.5t60 21.5q46 0 66 -29.5t20 -105.5 q0 -91 -38.5 -157t-107.5 -97z" />
<glyph unicode="&#x201e;" horiz-adv-x="743" d="M152 -168q92 57 100 170q-12 -10 -33 -10q-33 0 -49 19t-16 67q0 94 79 94q46 0 66 -29.5t20 -105.5q0 -93 -38 -158t-107 -96zM428 -168q92 57 100 170q-12 -10 -32 -10q-33 0 -49.5 19t-16.5 67q0 94 80 94q46 0 66 -29.5t20 -105.5q0 -93 -38 -158t-107 -96z" />
<glyph unicode="&#x2022;" horiz-adv-x="532" d="M154 592q0 113 110 113q57 0 85 -26.5t28 -86.5q0 -111 -113 -111q-58 0 -84 26t-26 85z" />
<glyph unicode="&#x2026;" horiz-adv-x="1167" d="M172 82q0 53 18 73.5t60 20.5t59 -20.5t17 -73.5q0 -50 -18.5 -73t-57.5 -23q-42 0 -60 21.5t-18 74.5zM508 82q0 53 18 73.5t60 20.5t59 -20.5t17 -73.5q0 -50 -18.5 -73t-57.5 -23q-42 0 -60 21.5t-18 74.5zM844 82q0 52 18 73t58 21q42 0 59.5 -20.5t17.5 -73.5 q0 -51 -18 -73.5t-59 -22.5q-42 0 -59 21t-17 75z" />
<glyph unicode="&#x202f;" horiz-adv-x="385" />
<glyph unicode="&#x2039;" horiz-adv-x="612" d="M119 598v14l266 400h102l-276 -404l291 -393h-105z" />
<glyph unicode="&#x203a;" horiz-adv-x="612" d="M111 215l290 395l-274 402h100l269 -400v-14l-279 -383h-106z" />
<glyph unicode="&#x205f;" horiz-adv-x="481" />
<glyph unicode="&#x20ac;" horiz-adv-x="1067" d="M53 535v77h146v234h-146v80h146v80q0 227 99.5 343.5t297.5 116.5q193 0 284 -104t91 -293v-27h-101v25q0 154 -63.5 231.5t-212.5 77.5q-154 0 -225.5 -94t-71.5 -281v-75h448l-30 -80h-418v-234h340l-31 -77h-309v-101q0 -187 74 -273.5t231 -86.5q142 0 209.5 80 t67.5 260v35h102v-39q0 -217 -93.5 -323.5t-285.5 -106.5q-204 0 -303.5 108.5t-99.5 341.5v105h-146z" />
<glyph unicode="&#x2122;" horiz-adv-x="1017" d="M51 1389v61h328v-61h-133v-562h-66v562h-129zM467 827v623h63l150 -354l147 354h64v-623h-64v379l13 160l-17 -57l-133 -318h-20l-135 316l-17 59l12 -160v-379h-63z" />
<glyph unicode="&#x25fc;" horiz-adv-x="1167" d="M0 0v1167h1167v-1167h-1167z" />
</font>
</defs>
</svg>
