<?xml version="1.0" standalone="no"?>
<!DOCTYPE svg PUBLIC "-//W3C//DTD SVG 1.1//EN" "http://www.w3.org/Graphics/SVG/1.1/DTD/svg11.dtd" >
<svg xmlns="http://www.w3.org/2000/svg" xmlns:xlink="http://www.w3.org/1999/xlink" version="1.1">
<metadata></metadata>
<defs>
<font id="sharp_grotesksemibold_15" horiz-adv-x="929" >
<font-face units-per-em="2048" ascent="1638" descent="-410" />
<missing-glyph horiz-adv-x="419" />
<glyph horiz-adv-x="0" />
<glyph horiz-adv-x="682" />
<glyph unicode=" "  horiz-adv-x="419" />
<glyph unicode="&#x09;" horiz-adv-x="419" />
<glyph unicode="&#xa0;" horiz-adv-x="419" />
<glyph unicode="!" horiz-adv-x="518" d="M100 154q0 101 33.5 135.5t124.5 34.5q89 0 123.5 -35t34.5 -135q0 -99 -35 -135.5t-123 -36.5q-92 0 -125 35.5t-33 136.5zM119 1077v391h280v-391q0 -197 -18 -440q-12 -209 -27 -248q-29 10 -94 10q-67 0 -96 -10q-15 39 -27 246q-18 243 -18 442z" />
<glyph unicode="&#x22;" horiz-adv-x="710" d="M74 1432v36h233v-36q0 -124 -6 -183q-11 -172 -31 -272h-161q-7 30 -17 110q-18 173 -18 345zM406 1432v36h233v-36q0 -6 -6 -183q-10 -156 -33 -272h-160q-5 22 -16 110q-18 173 -18 345z" />
<glyph unicode="#" horiz-adv-x="1333" d="M59 365v223h236l37 321h-226v224h250l39 335h250l-39 -335h209l39 335h250l-37 -335h211v-224h-236l-36 -321h225v-223h-250l-41 -365h-252l41 365h-209l-41 -365h-250l41 365h-211zM545 588h209l37 321h-209z" />
<glyph unicode="$" horiz-adv-x="909" d="M55 356v195h271v-193q0 -75 31.5 -113t107.5 -38q123 0 123 131v119q0 51 -29 88q-26 29 -68.5 52.5t-121.5 59.5q-91 43 -144 76q-154 90 -157 289v119q0 130 71.5 220.5t202.5 119.5v213h252v-219q120 -30 181 -113t61 -207v-182h-261v166q0 72 -28.5 104.5t-95.5 32.5 q-117 0 -117 -133v-101q0 -34 12 -60t42.5 -49t56.5 -37t79 -40q6 -3 9.5 -4.5t9 -4.5t10.5 -5q78 -36 143 -74q156 -95 156 -291v-135q0 -141 -69 -232t-197 -120v-207h-254v205q-145 26 -211 117t-66 251z" />
<glyph unicode="%" horiz-adv-x="1265" d="M59 1044v199q0 115 66.5 177.5t177.5 62.5t177.5 -63.5t66.5 -176.5v-199q0 -113 -65 -175t-181 -62q-117 0 -179.5 61.5t-62.5 175.5zM90 0q26 33 72 113q51 84 264 479l297 555q143 266 182 321h269q-28 -36 -72 -112q-138 -250 -260 -482l-295 -552 q-144 -269 -182 -322h-275zM238 1059q0 -86 65 -86q66 0 66 86v176q0 86 -66 86q-65 0 -65 -86v-176zM719 217v203q0 115 67 179.5t179 64.5q110 0 176.5 -65t66.5 -179v-203q0 -113 -64.5 -175t-180.5 -62q-117 0 -180.5 61t-63.5 176zM899 231q0 -84 66 -84q65 0 65 84 v181q0 86 -65 86q-66 0 -66 -86v-181z" />
<glyph unicode="&#x26;" horiz-adv-x="1198" d="M49 340v39q0 116 39 190q34 74 95.5 132.5t150.5 113.5q-55 181 -55 315v15q0 166 84 256t233 90t231 -74.5t82 -214.5v-10q0 -145 -75 -250.5t-234 -206.5q39 -97 80 -184q55 -106 106 -178q132 185 132 481v53h225v-57q0 -182 -50 -344.5t-143 -284.5q39 -20 82 -20 q82 0 133 51v-219q-56 -53 -168 -53q-114 0 -223 81q-142 -84 -301 -84q-203 0 -313.5 92t-110.5 271zM307 373q0 -79 47 -125.5t135 -46.5q67 0 125 24q-70 93 -135 224q-16 33 -43 95t-30 68q-51 -43 -75 -93t-24 -126v-20zM502 1139q0 -75 30 -205q83 59 120.5 113.5 t37.5 138.5v6q0 104 -90 104q-98 0 -98 -143v-14z" />
<glyph unicode="'" horiz-adv-x="380" d="M74 1432v36h233v-36q0 -124 -6 -183q-11 -172 -31 -272h-161q-7 30 -17 110q-18 173 -18 345z" />
<glyph unicode="(" horiz-adv-x="632" d="M86 258v653q0 304 129.5 444.5t376.5 145.5v-248q-122 -6 -177 -85.5t-55 -262.5v-633q0 -179 55 -258t177 -84v-254q-170 3 -279.5 60t-168 186t-58.5 336z" />
<glyph unicode=")" horiz-adv-x="632" d="M41 -70q123 5 177 83.5t54 258.5v633q0 184 -54 262.5t-177 83.5v250q247 -5 376.5 -145.5t129.5 -444.5v-653q0 -207 -58 -336t-167.5 -186t-280.5 -60v254z" />
<glyph unicode="*" horiz-adv-x="782" d="M61 1165l261 70l-261 68l105 184l192 -191l-73 260h215l-72 -256l188 189l107 -182l-262 -70l262 -70l-105 -184l-188 188l70 -258h-215l71 261l-188 -191z" />
<glyph unicode="+" horiz-adv-x="907" d="M96 612v226h246v247h223v-247h248v-226h-248v-247h-223v247h-246z" />
<glyph unicode="," horiz-adv-x="509" d="M98 152q0 101 33.5 135.5t124.5 34.5q93 0 126.5 -43.5t33.5 -174.5q0 -345 -295 -368v131q120 15 135 125q-10 -2 -29 -2q-72 0 -100.5 32t-28.5 130z" />
<glyph unicode="-" horiz-adv-x="772" d="M76 487v254h622v-254h-622z" />
<glyph unicode="." horiz-adv-x="509" d="M96 160q0 105 34.5 140.5t123.5 35.5q92 0 126 -35t34 -141q0 -103 -35 -140.5t-125 -37.5q-92 0 -125 36t-33 142z" />
<glyph unicode="/" horiz-adv-x="649" d="M20 0l330 1468h279l-326 -1468h-283z" />
<glyph unicode="0" horiz-adv-x="995" d="M74 426v614q0 221 113 335t311 114t311 -114t113 -335v-614q0 -226 -112 -338.5t-312 -112.5q-203 0 -313.5 112t-110.5 339zM348 440q0 -116 34 -168.5t116 -52.5q79 0 114 53t35 168v590q0 117 -35 171t-114 54q-81 0 -115.5 -55.5t-34.5 -169.5v-590z" />
<glyph unicode="1" horiz-adv-x="735" d="M49 0v254h195v801h-158v194q90 13 138.5 65t72.5 154h207v-1214h186v-254h-641z" />
<glyph unicode="2" horiz-adv-x="942" d="M66 0v227q0 135 47 219q43 82 108 146.5t154 130.5q105 79 117 90q120 98 120 211v94q0 72 -31 105.5t-102 33.5q-137 0 -137 -139v-203h-270v213q0 175 104 268t303 93q200 0 302 -91.5t102 -269.5v-104q0 -113 -43 -201q-27 -52 -70.5 -101.5t-78.5 -79t-95 -75.5 q-92 -73 -111 -90q-113 -95 -116 -213v-10h510v-254h-813z" />
<glyph unicode="3" horiz-adv-x="956" d="M55 340v197h271v-175q0 -71 33.5 -103t109.5 -32q81 0 114 35.5t33 110.5v145q0 70 -36.5 100.5t-116.5 30.5h-103v211h105q139 0 139 135v125q0 68 -30.5 99.5t-104.5 31.5q-71 0 -103 -32.5t-32 -98.5v-149h-266v168q0 165 105.5 257.5t297.5 92.5q198 0 300.5 -87 t102.5 -245v-143q0 -193 -147 -254q166 -58 166 -262v-160q0 -166 -106 -263.5t-320 -97.5q-212 0 -312 92t-100 271z" />
<glyph unicode="4" horiz-adv-x="976" d="M43 291v196l512 981h231v-946h154v-231h-154v-291h-247v291h-496zM303 522h236v404l18 153l-45 -149z" />
<glyph unicode="5" horiz-adv-x="942" d="M61 356v162h279v-141q0 -85 30 -120.5t105 -35.5t106 42t31 126v262q0 144 -133 144q-51 0 -84.5 -26t-60.5 -73q-13 -35 -15 -37l-249 66l80 743h706v-14q0 -92 -18 -151q-19 -45 -72.5 -60.5t-169.5 -15.5h-229q-2 -31 -15 -127q-5 -64 -24 -234q41 74 101.5 113.5 t162.5 38.5q150 1 219.5 -90.5t69.5 -261.5v-301q0 -189 -101 -289.5t-305 -100.5q-212 0 -313 93.5t-101 287.5z" />
<glyph unicode="6" horiz-adv-x="978" d="M74 428v608q0 453 434 453q398 0 401 -383v-102h-274v98q0 78 -31 115.5t-100 37.5q-84 0 -121 -54.5t-37 -170.5v-293q76 156 260 156q314 0 314 -348v-156q0 -207 -109.5 -310.5t-314.5 -103.5q-422 0 -422 453zM346 438q0 -111 35.5 -163t114.5 -52q153 0 153 180v121 q0 158 -149 158q-112 0 -154 -98v-146z" />
<glyph unicode="7" horiz-adv-x="851" d="M41 1208v260h776v-221q-111 -230 -168 -385q-144 -384 -213 -862h-307q63 361 162.5 647.5t238.5 560.5h-489z" />
<glyph unicode="8" horiz-adv-x="956" d="M61 317v191q0 91 42 158.5t118 99.5q-137 62 -137 248v141q0 151 103 242.5t292 91.5q192 0 297 -90t105 -244v-139q0 -184 -142 -248q75 -33 116.5 -99t41.5 -161v-191q0 -156 -109 -249t-311 -93q-203 0 -309.5 91t-106.5 251zM334 354q0 -61 37.5 -96t107.5 -35 q72 0 111 34.5t39 98.5v172q0 57 -37.5 94t-106.5 37h-14q-67 0 -102 -38t-35 -95v-172zM344 999q0 -56 31.5 -91.5t97.5 -35.5h14q67 0 99 35.5t32 93.5v123q0 131 -137 131t-137 -133v-123z" />
<glyph unicode="9" horiz-adv-x="976" d="M61 936v149q0 195 108.5 299.5t309.5 104.5q214 0 319 -110t105 -345v-610q0 -449 -424 -449q-204 0 -305.5 97.5t-103.5 283.5v144h278v-131q0 -78 34 -116t110 -38q81 0 113 48.5t32 158.5v323q-69 -153 -250 -153q-159 0 -242.5 86t-83.5 258zM336 944 q0 -145 147 -145q116 0 154 108v137q0 107 -35.5 158t-118.5 51q-147 0 -147 -174v-135z" />
<glyph unicode=":" horiz-adv-x="512" d="M100 193q0 106 32 140t124 34q93 0 125.5 -34t32.5 -140q0 -105 -33 -140t-125 -35t-124 34.5t-32 140.5zM100 965q0 106 32 140t124 34q93 0 125.5 -34t32.5 -140q0 -105 -32.5 -139.5t-125.5 -34.5t-124.5 34t-31.5 140z" />
<glyph unicode=";" horiz-adv-x="514" d="M100 152q0 101 33.5 135.5t124.5 34.5q93 0 126.5 -43.5t33.5 -174.5q0 -345 -293 -368l-2 131q120 15 135 125q-10 -2 -29 -2q-71 0 -100 32t-29 130zM100 965q0 106 32 140t124 34q93 0 125.5 -34t32.5 -140q0 -105 -32.5 -139.5t-125.5 -34.5t-124.5 34t-31.5 140z " />
<glyph unicode="&#x3c;" horiz-adv-x="905" d="M113 639v219l671 287v-250l-387 -143l387 -144v-256z" />
<glyph unicode="=" horiz-adv-x="919" d="M123 426v225h674v-225h-674zM123 819v225h674v-225h-674z" />
<glyph unicode="&#x3e;" horiz-adv-x="905" d="M123 352v256l385 144l-385 143v250l670 -287v-219z" />
<glyph unicode="?" horiz-adv-x="927" d="M61 893v250q0 167 102.5 255.5t305.5 88.5q200 0 299.5 -88.5t99.5 -239.5v-186q0 -87 -24 -146q-22 -53 -56 -88.5t-86 -74.5q-73 -52 -103.5 -89t-31.5 -96l-2 -108q-28 22 -123 22q-99 0 -127 -22q-6 99 -6 118v21q0 101 40.5 165.5t123.5 119.5q68 51 88 74 q35 41 35 94v176q0 118 -129 118q-74 0 -103.5 -33t-29.5 -102v-229h-273zM283 150q0 96 34 129.5t125 33.5t124.5 -33t33.5 -130q0 -96 -34.5 -132t-125.5 -36q-92 0 -124.5 34t-32.5 134z" />
<glyph unicode="@" horiz-adv-x="1236" d="M70 342v539q0 186 71 311q70 127 196.5 193.5t291.5 66.5q263 0 404 -146t141 -401v-454q0 -183 -60.5 -269t-189.5 -86q-142 0 -195 103q-42 -107 -166 -107q-211 0 -211 279v479q0 146 56.5 214.5t156.5 68.5q58 0 97.5 -28.5t58.5 -74.5l33 90h127v-747 q0 -69 10.5 -94t42.5 -25q34 0 48.5 44t14.5 163v440q0 187 -88 285t-282 98q-185 0 -284 -106.5t-99 -311.5v-508q0 -204 97.5 -309.5t281.5 -105.5q95 0 149.5 24t97.5 80l211 -29q-139 -243 -460 -243q-261 0 -406 141.5t-145 425.5zM541 389q0 -75 16 -105t59 -30 q42 0 59 31t17 104v440q0 79 -16.5 111.5t-59.5 32.5q-41 0 -58 -32.5t-17 -109.5v-442z" />
<glyph unicode="A" horiz-adv-x="952" d="M14 0l326 1468h264l334 -1468h-264l-43 217h-312l-40 -217h-265zM365 449h221l-97 489l-16 205l-16 -205z" />
<glyph unicode="B" horiz-adv-x="956" d="M94 0v1468h393q212 0 302 -78.5t90 -242.5v-131q0 -109 -38 -170t-128 -90q98 -26 142 -88t44 -170v-152q0 -177 -80 -261.5t-278 -84.5h-447zM350 229h135q83 0 114.5 31t31.5 111v129q0 77 -35.5 109t-120.5 32h-125v-412zM350 862h127q80 0 112 33.5t32 116.5v116 q0 66 -34 95.5t-110 29.5h-127v-391z" />
<glyph unicode="C" horiz-adv-x="972" d="M76 424v623q0 221 109 331.5t307 110.5q214 0 315.5 -102.5t101.5 -323.5v-180h-280v159q0 119 -28.5 164t-111.5 45q-78 0 -108.5 -52t-30.5 -169v-586q0 -118 30.5 -168.5t111.5 -50.5q76 0 106.5 49.5t30.5 159.5v189h282v-207q-1 -227 -108.5 -333t-313.5 -106 q-208 0 -310.5 109t-102.5 338z" />
<glyph unicode="D" horiz-adv-x="989" d="M94 0v1468h379q128 0 227 -45q213 -93 213 -391v-596q0 -158 -57 -250q-107 -186 -385 -186h-377zM358 233h103q178 0 178 228v553q0 227 -180 227h-101v-1008z" />
<glyph unicode="E" horiz-adv-x="843" d="M94 0v1468h686v-239h-424v-365h373v-241h-373v-375h437v-248h-699z" />
<glyph unicode="F" horiz-adv-x="794" d="M94 0v1468h654v-245h-396v-389h365v-246h-365v-588h-258z" />
<glyph unicode="G" horiz-adv-x="1009" d="M76 422v622q0 223 114.5 334t319.5 111q202 0 308 -98.5t106 -290.5v-166h-277v151q0 86 -33 127t-108 41q-158 0 -158 -225v-582q0 -118 36.5 -170.5t119.5 -52.5q151 0 151 211v129h-170v228h439v-791h-197l-33 229q-46 -252 -288 -252q-168 0 -249 108.5t-81 336.5z " />
<glyph unicode="H" horiz-adv-x="997" d="M94 0v1468h264v-606h283v606h264v-1468h-264v610h-283v-610h-264z" />
<glyph unicode="I" horiz-adv-x="710" d="M57 0v250h172v973h-172v245h596v-245h-168v-973h168v-250h-596z" />
<glyph unicode="J" horiz-adv-x="905" d="M49 369v213h275v-213q0 -74 24.5 -109t83.5 -35q64 0 87.5 37t23.5 139v1067h274v-1071q0 -220 -94 -320t-291 -100q-193 0 -288 93t-95 299z" />
<glyph unicode="K" horiz-adv-x="997" d="M94 0v1468h258v-518l-4 -71l12 34l293 555h297l-303 -540l12 -33l314 -895h-291l-215 668l-16 75l-99 -180v-563h-258z" />
<glyph unicode="L" horiz-adv-x="808" d="M94 0v1468h271v-1204h393v-264h-664z" />
<glyph unicode="M" horiz-adv-x="1163" d="M94 0v1468h232l256 -634l256 634h231v-1468h-246v825l37 258l-47 -157l-197 -484h-63l-207 486l-39 147l33 -260v-815h-246z" />
<glyph unicode="N" horiz-adv-x="1038" d="M94 0v1468h236l338 -827l51 -166l-14 199v794h239v-1468h-229l-346 834l-52 176l17 -219v-791h-240z" />
<glyph unicode="O" horiz-adv-x="999" d="M76 424v616q0 221 112.5 334t311.5 113t311.5 -113t112.5 -334v-616q0 -224 -112 -335.5t-312 -111.5q-204 0 -314 110.5t-110 336.5zM350 444q0 -116 34 -168.5t116 -52.5q79 0 114 53t35 168v584q0 116 -35 169.5t-114 53.5q-82 0 -116 -53t-34 -170v-584z" />
<glyph unicode="P" horiz-adv-x="940" d="M94 0v1468h387q214 0 311 -87.5t97 -282.5v-250q0 -387 -404 -387h-131v-461h-260zM354 692h117q154 0 154 162v236q0 83 -36.5 118t-117.5 35h-117v-551z" />
<glyph unicode="Q" horiz-adv-x="997" d="M76 424v616q0 221 112.5 334t311.5 113q197 0 309.5 -113.5t112.5 -333.5v-616q0 -250 -144 -365l142 -245h-302l-77 166q-21 -3 -43 -3q-201 0 -311.5 110.5t-110.5 336.5zM348 444q0 -116 35 -168.5t117 -52.5q79 0 114 53t35 168v584q0 117 -34.5 170t-116.5 53 q-79 0 -114.5 -54t-35.5 -169v-584z" />
<glyph unicode="R" horiz-adv-x="950" d="M94 0v1468h395q206 0 299 -83.5t93 -266.5v-176q0 -105 -38.5 -166.5t-117.5 -91.5q78 -26 109.5 -85.5t31.5 -170.5v-332q0 -60 39 -96h-278q-27 21 -27 98v318q0 80 -29 112.5t-110 32.5h-111v-561h-256zM350 795h125q77 0 111.5 35t34.5 110v164q0 73 -34.5 106 t-113.5 33h-123v-448z" />
<glyph unicode="S" horiz-adv-x="903" d="M45 360v197h274v-192q0 -74 32 -112t108 -38q129 0 129 141v76q0 61 -33 105q-29 37 -77.5 68t-123.5 69q-90 48 -137 84q-156 109 -156 305v61q0 174 98 269.5t292 95.5t288.5 -89.5t94.5 -254.5v-160h-261v143q0 73 -28.5 106.5t-95.5 33.5q-123 0 -123 -146v-41 q0 -59 32 -94q29 -34 75 -63t122 -68q60 -32 139 -84q158 -111 158 -309v-113q0 -178 -101 -275.5t-296 -97.5q-222 0 -316 94.5t-94 288.5z" />
<glyph unicode="T" horiz-adv-x="829" d="M41 1227v241h750v-241h-244v-1227h-264v1227h-242z" />
<glyph unicode="U" horiz-adv-x="972" d="M86 418v1050h268v-1034q0 -107 30.5 -152.5t102.5 -45.5t103 45t31 153v1034h266v-1050q0 -226 -101.5 -333.5t-298.5 -107.5q-202 0 -301.5 106.5t-99.5 334.5z" />
<glyph unicode="V" horiz-adv-x="952" d="M20 1468h271l174 -876l14 -215l15 215l170 876h268l-320 -1468h-266z" />
<glyph unicode="W" horiz-adv-x="1380" d="M29 1468h254l112 -817l11 -268l28 252l166 833h176l156 -833l24 -270l19 286l127 817h252l-258 -1468h-242l-154 817l-16 232l-16 -232l-164 -817h-244z" />
<glyph unicode="X" horiz-adv-x="946" d="M6 0l318 774l-285 694h276l150 -417l10 -68l8 68l152 417h276l-290 -698l317 -770h-281l-172 471l-10 64l-8 -66l-170 -469h-291z" />
<glyph unicode="Y" horiz-adv-x="882" d="M2 1468h274l148 -532l16 -125l17 125l153 532h273l-310 -942v-526h-272v526z" />
<glyph unicode="Z" horiz-adv-x="872" d="M61 0v221l455 996h-426v251h715v-229l-443 -983h449v-256h-750z" />
<glyph unicode="[" horiz-adv-x="620" d="M102 -324v1821h473v-223h-210v-1374h210v-224h-473z" />
<glyph unicode="\" horiz-adv-x="649" d="M29 1468h276l316 -1468h-275z" />
<glyph unicode="]" horiz-adv-x="620" d="M47 -100h211v1374h-211v223h473v-1821h-473v224z" />
<glyph unicode="^" horiz-adv-x="899" d="M102 905l248 559h195l254 -559h-224l-126 330l-125 -330h-222z" />
<glyph unicode="_" horiz-adv-x="946" d="M53 0v229h840v-229h-840z" />
<glyph unicode="`" horiz-adv-x="800" d="M154 1620h256l157 -317h-180z" />
<glyph unicode="a" horiz-adv-x="917" d="M53 272v68q0 145 97 229q30 26 71 47.5t76 34t115 39.5q106 38 139 66t33 88v26q0 127 -121 127q-127 0 -127 -133v-123h-254v127q0 157 95.5 246.5t283.5 89.5q196 0 286.5 -85.5t90.5 -264.5v-854h-207l-35 154q-73 -172 -266 -172q-277 0 -277 290zM326 299 q0 -51 30.5 -82t81.5 -31q69 0 107.5 53t38.5 144v227q-20 -26 -97 -53q-100 -40 -125 -74q-36 -39 -36 -133v-51z" />
<glyph unicode="b" horiz-adv-x="950" d="M88 0v1536h258v-504q58 172 229 172q150 0 227 -103.5t77 -328.5v-332q0 -235 -76 -345.5t-232 -110.5q-193 0 -237 198l-27 -182h-219zM344 418q0 -207 139 -207q68 0 100.5 51t32.5 168v346q0 108 -31.5 156.5t-101.5 48.5q-69 0 -104 -56.5t-35 -154.5v-352z" />
<glyph unicode="c" horiz-adv-x="913" d="M72 387v406q0 208 102 310.5t297 102.5q192 0 285.5 -99.5t93.5 -303.5v-113h-268v109q0 103 -25 142.5t-94 39.5q-70 0 -99.5 -44t-29.5 -149v-395q0 -97 29 -139.5t98 -42.5q66 0 93.5 41t27.5 133v141h268v-149q0 -200 -96.5 -298.5t-294.5 -98.5t-292.5 100 t-94.5 307z" />
<glyph unicode="d" horiz-adv-x="950" d="M72 438v334q0 222 81.5 327t227.5 105q170 0 225 -162v494h256v-1536h-217l-29 176q-45 -192 -239 -192q-154 0 -229.5 110t-75.5 344zM334 432q0 -120 32 -171.5t99 -51.5q141 0 141 205v356q0 211 -135 211q-72 0 -104.5 -51t-32.5 -160v-338z" />
<glyph unicode="e" horiz-adv-x="917" d="M74 391v400q0 198 105 306.5t290 108.5q199 0 294 -107.5t95 -299.5v-279h-530v-129q0 -98 33.5 -141t109.5 -43q72 0 99.5 42t27.5 126v37h260v-31q0 -123 -31 -203q-67 -198 -358 -198h-4q-200 0 -295 102q-96 102 -96 309zM328 700h278v101q0 96 -29.5 140t-103.5 44 q-145 0 -145 -194v-91z" />
<glyph unicode="f" horiz-adv-x="610" d="M23 954v236h135v86q0 175 73.5 249t239.5 74h113v-227h-72q-61 0 -79.5 -23.5t-18.5 -95.5v-63h170v-236h-170l-2 -954h-254v954h-135z" />
<glyph unicode="g" horiz-adv-x="915" d="M39 -195q0 65 50.5 117t141.5 76q-184 27 -184 188q0 150 195 197q-162 60 -162 266v219q0 279 303 328l31 6q99 18 131.5 47t32.5 105v69h272v-24q0 -125 -56.5 -178.5t-205.5 -57.5q3 0 9 -1t9 -1q116 -13 177 -87.5t61 -196.5v-230q0 -334 -383 -334h-45 q-87 0 -120.5 -13.5t-33.5 -43.5q0 -26 27 -38q25 -11 89 -11h11h168q352 0 352 -279v-4q0 -90 -47 -164q-104 -161 -422 -161h-24q-377 0 -377 206zM281 -113v-6q0 -36 37.5 -57t109.5 -21h43q91 0 139.5 29.5t48.5 73.5v6q0 35 -32.5 57.5t-98.5 22.5h-98 q-62 -5 -105.5 -34.5t-43.5 -70.5zM342 633q0 -129 119 -129q60 0 92.5 33.5t32.5 97.5v250q0 133 -121 133q-26 0 -31 -4q-92 -16 -92 -131v-250z" />
<glyph unicode="h" horiz-adv-x="940" d="M88 0v1536h260v-514q52 182 238 182q270 0 270 -356v-848h-264v805q0 87 -24.5 127.5t-88.5 40.5q-131 0 -131 -189v-784h-260z" />
<glyph unicode="i" horiz-adv-x="444" d="M72 1409q0 88 34 120t119 32t119.5 -32.5t34.5 -119.5t-36 -119.5t-118 -32.5q-89 0 -121 31.5t-32 120.5zM88 0v1186q10 -7 55 -13t80 -6q34 0 78.5 6t54.5 13v-1186h-268z" />
<glyph unicode="j" horiz-adv-x="448" d="M-76 -156h72q60 0 78 20.5t18 90.5v1231q10 -7 55 -13t80 -6q34 0 77.5 6t53.5 13v-1274q0 -118 -28 -191q-29 -69 -96 -98t-191 -29h-119v250zM74 1409q0 88 34 120t119 32t119.5 -32.5t34.5 -119.5t-36 -119.5t-118 -32.5q-87 0 -120 32t-33 120z" />
<glyph unicode="k" horiz-adv-x="915" d="M88 0v1536h256v-758l-4 -73l33 75l241 410h287l-270 -449l282 -741h-276l-199 559l-6 39l-88 -168v-430h-256z" />
<glyph unicode="l" horiz-adv-x="438" d="M88 0v1536h262v-1536h-262z" />
<glyph unicode="m" horiz-adv-x="1402" d="M88 0v1190h213l27 -166q63 186 241 186q194 0 242 -178q61 178 238 178q274 0 274 -352v-858h-262v813q0 87 -24.5 127.5t-86.5 40.5q-114 0 -114 -170v-811h-263v817q0 83 -23 123.5t-85 40.5q-63 0 -90 -47t-27 -141v-793h-260z" />
<glyph unicode="n" horiz-adv-x="942" d="M88 0v1190h215l29 -174q54 188 248 188q282 0 282 -356v-848h-264v805q0 87 -25.5 127.5t-89.5 40.5q-131 0 -131 -189v-784h-264z" />
<glyph unicode="o" d="M72 387v406q0 203 103.5 308t289.5 105q191 0 292 -104t101 -309v-406q0 -204 -99.5 -305.5t-293.5 -101.5q-200 0 -296.5 100t-96.5 307zM334 393q0 -182 131 -182t131 182v398q0 98 -30.5 144t-100.5 46q-131 0 -131 -190v-398z" />
<glyph unicode="p" horiz-adv-x="946" d="M88 -381v1571h213l31 -176q55 190 239 190q156 0 231 -106t75 -346v-324q0 -234 -78 -339t-230 -105q-93 0 -147 43t-78 129v-537h-256zM344 403q0 -194 133 -194q71 0 105 47.5t34 153.5v354q0 118 -32.5 167.5t-102.5 49.5q-137 0 -137 -207v-371z" />
<glyph unicode="q" horiz-adv-x="950" d="M72 403v353q0 230 77 339t236 109q97 0 153 -45.5t80 -132.5l29 164h215v-1571h-258v541q-49 -178 -231 -178q-73 1 -127 23t-94 70.5t-60 130.5t-20 197zM334 410q0 -203 133 -203q66 0 102.5 52t36.5 147v358q0 215 -135 215q-70 0 -103.5 -47.5t-33.5 -163.5v-358z " />
<glyph unicode="r" horiz-adv-x="628" d="M88 0v1190h191l40 -213q10 132 62 178.5t180 46.5h39v-295h-70q-112 0 -148 -45t-36 -170v-692h-258z" />
<glyph unicode="s" horiz-adv-x="854" d="M41 311v121h266v-104q0 -66 29 -95.5t98 -29.5q60 0 90.5 32.5t30.5 92.5v16q0 53 -31 84q-49 49 -184 96q-73 27 -133 62q-150 85 -150 272v21q0 147 94 237t275 90q188 0 278.5 -83t90.5 -234v-90h-250v80q0 60 -27 89t-90 29q-59 0 -88 -30t-29 -82v-15 q0 -29 14 -51.5t40.5 -39.5t57 -30.5t71.5 -29.5q15 -5 22 -8q74 -28 137 -68q160 -87 160 -285v-30q0 -163 -98 -257t-285 -94q-202 0 -295.5 83.5t-93.5 250.5z" />
<glyph unicode="t" horiz-adv-x="628" d="M25 938v236q61 3 98 22q45 23 70 88q14 40 24 129h189v-223h184v-252h-184v-524q0 -72 12 -107q11 -33 38.5 -44t82.5 -11h49v-252h-111q-129 0 -192 31q-69 30 -98 106.5t-29 218.5v582h-133z" />
<glyph unicode="u" d="M84 338v852h264v-807q0 -84 24.5 -126t86.5 -42q64 0 92.5 48.5t28.5 142.5v784h262v-1190h-213l-31 172q-49 -190 -233 -190q-144 0 -212.5 87t-68.5 269z" />
<glyph unicode="v" horiz-adv-x="862" d="M8 1190h262l140 -674l20 -227l21 227l141 674h262l-295 -1190h-258z" />
<glyph unicode="w" horiz-adv-x="1269" d="M6 1190h254l100 -678l2 -229l35 229l150 678h164l143 -678l25 -238l12 234l123 682h250l-244 -1190h-246l-133 623l-14 194l-21 -196l-139 -621h-252z" />
<glyph unicode="x" horiz-adv-x="890" d="M8 0l291 625l-264 565h276l125 -322l10 -69l11 67l125 324h274l-260 -561l289 -629h-277l-147 354l-15 82l-12 -82l-147 -354h-279z" />
<glyph unicode="y" horiz-adv-x="884" d="M18 1190h263l153 -641l17 -223l18 227l143 637h258l-317 -1258q-37 -131 -70 -188q-37 -63 -103 -87t-190 -24h-127v246h99q79 0 108.5 20t46.5 89l15 67z" />
<glyph unicode="z" horiz-adv-x="788" d="M53 -2v207l400 756h-381v229h665v-215l-381 -739h383v-236z" />
<glyph unicode="{" horiz-adv-x="665" d="M55 471v248h78q65 0 93 26.5t28 90.5q0 49 -27 120q-1 3 -11.5 29t-13 32.5t-11.5 30.5t-12 34t-10 31.5t-9.5 35.5t-6 33t-5 36.5t-1.5 34.5q0 246 263 246h213v-211h-78q-67 0 -98 -24.5t-31 -81.5q0 -53 26 -115q2 -5 10.5 -24.5t11.5 -26t10.5 -25t10.5 -27.5t9 -26 t9 -28t7 -27t5.5 -28.5t3 -27t1.5 -28.5q0 -95 -46.5 -142.5t-151.5 -48.5v-24q198 0 198 -197q0 -67 -24 -137q-9 -25 -25.5 -69t-25.5 -69.5t-17 -59t-8 -58.5q0 -58 30 -82.5t97 -24.5h76v-211h-213q-265 0 -265 244q0 78 29 160q9 25 37 94t39.5 107t11.5 69 q0 65 -29 93t-92 28h-86z" />
<glyph unicode="|" horiz-adv-x="464" d="M102 -115v1692h263v-1692h-263z" />
<glyph unicode="}" horiz-adv-x="665" d="M43 -113h78q67 0 96 24.5t29 82.5q0 52 -25 119q-3 7 -20 51t-22 60t-15.5 50.5t-14.5 60.5t-4 52q0 197 199 197v24q-105 1 -151 48.5t-46 142.5q0 67 27 137q8 23 32 83.5t34 96t10 66.5q0 57 -31 81.5t-98 24.5h-78v211h213q140 0 201 -64.5t61 -181.5q0 -81 -26 -155 q-9 -27 -34 -90.5t-35.5 -101t-10.5 -70.5q0 -64 27.5 -90.5t92.5 -26.5h80v-248h-88q-63 0 -92 -28t-29 -93q0 -45 29 -121q30 -68 43.5 -101.5t29 -95t15.5 -112.5q0 -244 -264 -244h-213v211z" />
<glyph unicode="~" horiz-adv-x="866" d="M109 1092q0 158 42.5 226t145.5 68q61 0 102 -24q19 -11 51.5 -34t52.5 -33.5t38 -10.5q29 0 40 19.5t11 74.5h164q0 -158 -43.5 -226.5t-147.5 -68.5q-58 0 -104 27q-17 10 -50 34t-54 35t-40 11q-45 0 -45 -98h-163z" />
<glyph unicode="&#xa1;" horiz-adv-x="518" d="M102 1044q0 99 35 134.5t123 35.5q93 0 125.5 -34t32.5 -136q0 -101 -33.5 -135.5t-124.5 -34.5q-89 0 -123.5 35t-34.5 135zM119 121q0 197 18 440q12 207 27 246q92 -8 94 -8q24 0 96 8q15 -39 27 -246q18 -243 18 -440v-393h-280v393z" />
<glyph unicode="&#xa2;" d="M70 385v410q0 170 72.5 270.5t207.5 130.5v199h250v-199q266 -61 266 -377v-129h-270v125q0 92 -28 130t-99 38q-137 0 -137 -190v-402q0 -182 135 -182q129 0 129 168v149h270v-155q0 -318 -268 -379v-213h-252v209q-276 58 -276 397z" />
<glyph unicode="&#xa3;" horiz-adv-x="1024" d="M16 162q0 90 57 142t154 52q75 0 148 -39v25q0 100 -62 238h-215v182h150q-32 84 -45 119t-29.5 111t-17.5 147q0 164 93 258t275 94q183 0 272 -91.5t95 -269.5v-94l-264 -2v88q0 73 -24 105.5t-83 32.5q-104 0 -104 -138q0 -59 9.5 -126.5t19 -109.5t30.5 -124h242 v-182h-201q21 -102 21 -215q0 -61 -17 -134q71 -43 123 -43q47 0 65.5 33.5t18.5 122.5v80h252v-107q0 -196 -59 -270t-207 -74q-120 0 -269 103q-83 -103 -208 -103q-220 0 -220 189zM186 168q0 -41 52 -41q54 0 90 39q-60 43 -97 43q-45 0 -45 -41z" />
<glyph unicode="&#xa4;" horiz-adv-x="1077" d="M74 369l155 170q-34 72 -34 166v86q0 98 41 172l-152 159l149 148l154 -164q63 31 156 31q95 0 153 -31l150 166l155 -139l-151 -168q41 -74 41 -172v-86q0 -93 -35 -162l150 -162l-150 -147l-149 163q-72 -34 -164 -34q-85 0 -158 28l-152 -168zM403 711 q0 -66 37.5 -108t102.5 -42t102 42t37 108v77q0 66 -37 107t-102 41q-64 0 -102 -40.5t-38 -107.5v-77z" />
<glyph unicode="&#xa5;" horiz-adv-x="882" d="M2 1468h272l162 -430l4 -16l2 14l168 432h273l-295 -714h194v-189h-209v-100h207v-186h-207v-279h-272v279h-197v186h197v100h-197v189h179z" />
<glyph unicode="&#xa6;" horiz-adv-x="464" d="M102 -115v799h263v-799h-263zM102 813v764h263v-764h-263z" />
<glyph unicode="&#xa7;" horiz-adv-x="997" d="M27 748v20q0 84 56.5 138.5t141.5 56.5h11q-103 90 -103 223v24q0 146 93.5 224.5t273.5 78.5q184 0 274 -76.5t98 -226.5v-75h-256v69q-1 54 -30.5 79.5t-89.5 25.5q-109 0 -109 -95v-14q0 -14 3.5 -26.5t12.5 -24t18.5 -21t27 -20t32 -18t39.5 -18.5t43.5 -18.5 t50.5 -21t54 -22.5q88 -38 153 -76q152 -82 152 -223v-19q0 -82 -54.5 -133.5t-140.5 -56.5q107 -83 107 -228v-30q0 -154 -96 -236t-287 -82q-193 0 -287 79.5t-102 244.5v82h266v-72q4 -65 35 -92t96 -27q61 0 90 23.5t29 77.5v14q0 29 -14.5 52t-60.5 47.5t-74 36.5 t-111 44q-22 9 -33 13q-108 47 -156 75q-153 83 -153 224zM274 815q0 -25 14 -45.5t58 -46t76 -40t116 -51.5q16 -7 25 -11q73 -31 123 -60q38 21 41 78v10q0 26 -14 47.5t-61 48.5t-77.5 41t-119.5 53q-7 3 -11 5q-24 10 -66 31.5t-56 27.5q-45 -23 -48 -78v-10z" />
<glyph unicode="&#xa8;" horiz-adv-x="804" d="M129 1430q0 75 26.5 104t92.5 29q67 0 95 -29t28 -104q0 -72 -28 -102t-95 -30q-68 0 -93.5 28t-25.5 104zM436 1430q0 75 26.5 104t92.5 29q67 0 94 -29t27 -104q0 -72 -27.5 -102t-93.5 -30q-70 0 -94.5 27.5t-24.5 104.5z" />
<glyph unicode="&#xa9;" horiz-adv-x="1263" d="M72 526v392q0 173 71 303q74 128 199.5 196t286.5 68q159 0 291 -66q130 -67 201 -191t71 -294v-402q0 -176 -72 -296q-72 -126 -196 -192.5t-287 -66.5q-165 0 -295 62q-130 61 -200 184t-70 303zM256 539q0 -186 99 -283.5t282 -97.5q177 0 274 99t97 286v381 q0 183 -99 283t-280 100q-172 0 -272.5 -106.5t-100.5 -293.5v-368zM354 541v374q0 150 74.5 230t208.5 80t207 -70.5t74 -204.5v-119h-193v115q-1 58 -21.5 81.5t-64.5 23.5q-45 0 -67.5 -32t-22.5 -104v-364q0 -69 21.5 -99t66.5 -30t66 25t22 85v125h193v-133 q-1 -135 -76.5 -207.5t-204.5 -72.5q-136 0 -209.5 75.5t-73.5 221.5z" />
<glyph unicode="&#xaa;" horiz-adv-x="688" d="M41 842v43q0 108 80 162q49 35 188 75q73 24 97 42.5t24 52.5v26q0 42 -15.5 59t-56.5 17q-82 0 -82 -88v-66h-217v74q5 118 81 183t216 65q281 0 281 -252v-578h-176l-21 95q-61 -107 -198 -107q-201 0 -201 197zM272 862q0 -27 16 -45t44 -18q47 0 72.5 32t25.5 87v131 q-15 -15 -76 -37q-42 -16 -61 -37q-21 -34 -21 -64v-49z" />
<glyph unicode="&#xab;" horiz-adv-x="999" d="M88 602v19l244 391h227l-250 -394l260 -391h-237zM457 606v25l237 381h226l-246 -385l272 -400h-237z" />
<glyph unicode="&#xac;" horiz-adv-x="964" d="M66 721v233h802v-567h-247v334h-555z" />
<glyph unicode="&#xad;" horiz-adv-x="772" d="M76 487v254h622v-254h-622z" />
<glyph unicode="&#xae;" horiz-adv-x="825" d="M74 1104v39q0 161 94 252.5t244 91.5q151 0 245.5 -90.5t94.5 -249.5v-41q0 -159 -92.5 -247.5t-241.5 -88.5q-157 0 -250.5 84.5t-93.5 249.5zM188 1114q0 -231 230 -231q221 0 221 231v25q0 120 -59 180.5t-168 60.5q-105 0 -164.5 -63t-59.5 -182v-21zM276 946v371 h150q149 0 149 -121q0 -69 -59 -92q45 -20 45 -92v-45q0 -18 8 -21h-106q-6 18 -6 23v39q0 32 -9 41.5t-40 9.5h-27v-113h-105zM381 1147h29q61 0 61 43q0 23 -14 31t-47 8h-29v-82z" />
<glyph unicode="&#xaf;" horiz-adv-x="800" d="M174 1317v188h453v-188h-453z" />
<glyph unicode="&#xb0;" horiz-adv-x="626" d="M49 1217v10q0 124 73 190t191 66q123 0 194 -66t71 -190v-10q0 -116 -71 -181t-194 -65q-127 0 -195.5 63.5t-68.5 182.5zM242 1225q0 -36 19 -57t52 -21q74 0 74 78v2q0 80 -74 80q-31 0 -51 -19.5t-20 -60.5v-2z" />
<glyph unicode="&#xb1;" horiz-adv-x="907" d="M133 283v227h643v-227h-643zM133 819v223h211v209h221v-209h211v-223h-211v-211h-221v211h-211z" />
<glyph unicode="&#xb2;" horiz-adv-x="532" d="M49 735v125q0 65 27 117q43 73 147 135q47 30 70.5 58.5t23.5 66.5v51q0 51 -49 51q-28 0 -39.5 -14.5t-11.5 -44.5v-98h-168l2 108q0 90 56.5 140.5t162.5 50.5q213 0 213 -187v-61q0 -130 -118 -207l-30 -20t-32 -22t-25.5 -20t-25.5 -23t-16.5 -22.5t-12.5 -27.5h260 v-156h-434z" />
<glyph unicode="&#xb3;" horiz-adv-x="532" d="M43 907v90h166v-71q0 -28 12 -42t41 -14q55 0 55 50v73q0 28 -12 37.5t-43 9.5h-59v134h61q28 0 39.5 12t11.5 39v57q0 30 -11 42.5t-40 12.5q-53 0 -53 -57v-59h-162v71q0 187 213 187q215 0 215 -172v-72q0 -95 -76 -119q84 -24 84 -123v-96q0 -81 -56 -128.5 t-163 -47.5q-119 0 -171 44.5t-52 141.5z" />
<glyph unicode="&#xb4;" horiz-adv-x="800" d="M223 1303l185 317h258l-252 -317h-191z" />
<glyph unicode="&#xb6;" horiz-adv-x="1222" d="M53 1024q0 215 112.5 329.5t334.5 114.5h628v-1468h-237v1247h-117v-1247h-237v575h-35q-221 -1 -335 115.5t-114 333.5zM317 1024q0 -219 189 -219h31v442h-33q-187 0 -187 -223z" />
<glyph unicode="&#xb7;" horiz-adv-x="509" d="M96 612q0 105 34.5 140.5t123.5 35.5q92 0 126 -35t34 -141q0 -102 -34.5 -138t-125.5 -36q-93 0 -125.5 34.5t-32.5 139.5z" />
<glyph unicode="&#xb8;" horiz-adv-x="800" d="M102 -252h205q15 -72 99 -72q88 0 88 66q0 57 -91 57h-96v224h170v-101q203 -12 203 -182q0 -102 -73.5 -157.5t-203.5 -55.5q-140 0 -210.5 52.5t-90.5 168.5z" />
<glyph unicode="&#xb9;" horiz-adv-x="456" d="M43 735v154h111v340h-93v125q106 3 121 114h129v-579h107v-154h-375z" />
<glyph unicode="&#xba;" horiz-adv-x="696" d="M59 930v272q0 140 79 212.5t210 72.5q132 0 210.5 -73.5t78.5 -211.5v-272q0 -139 -76.5 -211t-212.5 -72q-289 0 -289 283zM270 936q0 -100 78 -100q42 0 61 23.5t19 76.5v262q0 59 -19 84t-61 25q-39 0 -58.5 -25.5t-19.5 -83.5v-262z" />
<glyph unicode="&#xbb;" horiz-adv-x="999" d="M55 227l271 400l-246 385h227l238 -381v-25l-252 -379h-238zM432 227l262 389l-252 396h228l243 -391v-19l-243 -375h-238z" />
<glyph unicode="&#xbc;" horiz-adv-x="1228" d="M94 102l449 582l59 -41l-274 -688zM113 735v154h110v340h-92v125q106 3 121 114h129v-579h106v-154h-374zM639 131v119l260 483h145v-467h80v-135h-80v-131h-145v131h-260zM653 860l283 660l227 -136l-444 -567zM797 266h102v168l4 37l-12 -35z" />
<glyph unicode="&#xbd;" horiz-adv-x="1228" d="M94 102l449 582l59 -41l-274 -688zM113 735v154h110v340h-92v125q106 3 121 114h129v-579h106v-154h-374zM653 860l283 660l227 -136l-444 -567zM705 0v125q0 67 26 117q43 72 148 135q47 30 70.5 58.5t23.5 66.5v51q0 51 -49 51q-28 0 -40 -14.5t-12 -44.5v-99h-167 l2 109q0 90 56.5 140t162.5 50q213 0 213 -186v-61q0 -129 -119 -207q-7 -5 -26 -17.5t-27 -18.5t-23.5 -17t-23 -19t-17 -18.5t-15.5 -21.5t-9 -23h260v-156h-434z" />
<glyph unicode="&#xbe;" horiz-adv-x="1228" d="M70 907v90h166v-71q0 -28 12 -42t41 -14q55 0 55 50v73q0 28 -12 37.5t-43 9.5h-60v134h62q28 0 39.5 12t11.5 39v57q0 30 -11 42.5t-40 12.5q-53 0 -53 -57v-59h-162v71q0 187 213 187q215 0 215 -172v-72q0 -95 -76 -119q84 -24 84 -123v-96q0 -81 -56 -128.5 t-163 -47.5q-119 0 -171 44.5t-52 141.5zM94 102l449 582l59 -41l-274 -688zM639 131v119l260 483h145v-467h80v-135h-80v-131h-145v131h-260zM653 860l283 660l227 -136l-444 -567zM797 266h102v168l4 37l-12 -35z" />
<glyph unicode="&#xbf;" horiz-adv-x="927" d="M63 35v186q0 85 25 146q15 36 41 69t46.5 51t53.5 43t39.5 30.5t30.5 25.5t29.5 29t17.5 27t15.5 35t3.5 38l2 108q51 -22 122 -22q87 0 127 22q7 -39 7 -118v-21q0 -69 -21 -122t-54 -88.5t-89 -74.5q-30 -21 -47 -34t-37 -34.5t-29.5 -46t-9.5 -53.5v-176 q0 -118 129 -118q73 0 103 33.5t30 101.5v229h272v-250q0 -167 -102 -255.5t-305 -88.5q-199 0 -299.5 88.5t-100.5 239.5zM332 1044q0 96 35 132t125 36q92 0 124.5 -34t32.5 -134q0 -96 -34.5 -129.5t-125.5 -33.5t-124 33t-33 130z" />
<glyph unicode="&#xc0;" horiz-adv-x="952" d="M14 0l326 1468h264l334 -1468h-264l-43 217h-312l-40 -217h-265zM150 1888h256l157 -317h-180zM365 449h221l-97 489l-16 205l-16 -205z" />
<glyph unicode="&#xc1;" horiz-adv-x="952" d="M14 0l326 1468h264l334 -1468h-264l-43 217h-312l-40 -217h-265zM365 449h221l-97 489l-16 205l-16 -205zM369 1571l184 317h258l-252 -317h-190z" />
<glyph unicode="&#xc2;" horiz-adv-x="952" d="M14 0l326 1468h264l334 -1468h-264l-43 217h-312l-40 -217h-265zM188 1567l199 338h168l201 -338h-197l-88 170l-92 -170h-191zM365 449h221l-97 489l-16 205l-16 -205z" />
<glyph unicode="&#xc3;" horiz-adv-x="952" d="M14 0l326 1468h264l334 -1468h-264l-43 217h-312l-40 -217h-265zM152 1569q2 155 43.5 223t142.5 68q54 0 102 -25q19 -11 49.5 -32.5t51 -32.5t37.5 -11q29 0 39 19t10 73h161q0 -155 -42 -222.5t-144 -67.5q-61 0 -100 26q-19 11 -49.5 33.5t-52 33.5t-42.5 11 q-45 0 -45 -96h-161zM365 449h221l-97 489l-16 205l-16 -205z" />
<glyph unicode="&#xc4;" horiz-adv-x="952" d="M14 0l326 1468h264l334 -1468h-264l-43 217h-312l-40 -217h-265zM197 1694q0 76 26.5 104.5t91.5 28.5q67 0 95 -29t28 -104q0 -72 -27.5 -101.5t-95.5 -29.5t-93 27.5t-25 103.5zM365 449h221l-97 489l-16 205l-16 -205zM504 1694q0 75 26.5 104t92.5 29 q67 0 93.5 -28.5t26.5 -104.5q0 -72 -27 -101.5t-93 -29.5q-70 0 -94.5 27t-24.5 104z" />
<glyph unicode="&#xc5;" horiz-adv-x="952" d="M14 0l326 1468h264l334 -1468h-264l-43 217h-312l-40 -217h-265zM236 1767q0 105 64.5 163.5t168.5 58.5q108 0 172 -58.5t64 -161.5q0 -102 -63.5 -159.5t-172.5 -57.5t-171 55t-62 160zM365 449h221l-97 489l-16 205l-16 -205zM403 1769q0 -30 17 -47.5t49 -17.5 q30 0 50 17.5t20 47.5q0 32 -18 51t-52 19q-31 0 -48.5 -19t-17.5 -51z" />
<glyph unicode="&#xc6;" horiz-adv-x="1349" d="M-2 0l461 1468h819v-235h-514l47 -369h428v-237h-397l47 -381h401v-246h-612l-27 221h-321l-66 -221h-266zM395 442h228l-66 535v14l-2 -12z" />
<glyph unicode="&#xc7;" horiz-adv-x="972" d="M76 424v623q0 221 109 331.5t307 110.5q214 0 315.5 -102.5t101.5 -323.5v-180h-280v159q0 119 -28.5 164t-111.5 45q-78 0 -108.5 -52t-30.5 -169v-586q0 -118 30.5 -168.5t111.5 -50.5q76 0 106.5 49.5t30.5 159.5v189h282v-207q-1 -202 -85 -306.5t-248 -125.5v-86 q202 -12 202 -183q0 -102 -73 -157.5t-203 -55.5q-140 0 -210.5 52.5t-90.5 169.5h205q15 -72 98 -72q88 0 88 65q0 58 -90 58h-96v207q-166 20 -249 128.5t-83 313.5z" />
<glyph unicode="&#xc8;" horiz-adv-x="843" d="M94 0v1468h686v-239h-424v-365h373v-241h-373v-375h437v-248h-699zM129 1888h256l158 -317h-181z" />
<glyph unicode="&#xc9;" horiz-adv-x="843" d="M94 0v1468h686v-239h-424v-365h373v-241h-373v-375h437v-248h-699zM330 1571l184 317h258l-252 -317h-190z" />
<glyph unicode="&#xca;" horiz-adv-x="843" d="M94 0v1468h686v-239h-424v-365h373v-241h-373v-375h437v-248h-699zM164 1571l198 338h168l201 -338h-196l-89 170l-92 -170h-190z" />
<glyph unicode="&#xcb;" horiz-adv-x="843" d="M94 0v1468h686v-239h-424v-365h373v-241h-373v-375h437v-248h-699zM174 1698q0 75 26.5 104t92.5 29q67 0 95 -29t28 -104q0 -72 -27.5 -101.5t-95.5 -29.5t-93.5 27.5t-25.5 103.5zM481 1698q0 75 26.5 104t92.5 29q67 0 94 -29t27 -104q0 -72 -27.5 -101.5t-93.5 -29.5 q-70 0 -94.5 27t-24.5 104z" />
<glyph unicode="&#xcc;" horiz-adv-x="710" d="M33 1888h256l157 -317h-180zM57 0v250h172v973h-172v245h596v-245h-168v-973h168v-250h-596z" />
<glyph unicode="&#xcd;" horiz-adv-x="710" d="M57 0v250h172v973h-172v245h596v-245h-168v-973h168v-250h-596zM252 1571l184 317h258l-252 -317h-190z" />
<glyph unicode="&#xce;" horiz-adv-x="710" d="M57 0v250h172v973h-172v245h596v-245h-168v-973h168v-250h-596zM74 1571l198 338h168l201 -338h-197l-88 170l-92 -170h-190z" />
<glyph unicode="&#xcf;" horiz-adv-x="710" d="M57 0v250h172v973h-172v245h596v-245h-168v-973h168v-250h-596zM82 1698q0 75 26.5 104t92.5 29q67 0 95 -29t28 -104q0 -72 -27.5 -101.5t-95.5 -29.5t-93.5 27.5t-25.5 103.5zM389 1698q0 75 26.5 104t92.5 29q67 0 94 -29t27 -104q0 -72 -27.5 -101.5t-93.5 -29.5 q-70 0 -94.5 27t-24.5 104z" />
<glyph unicode="&#xd0;" horiz-adv-x="1005" d="M12 618v238h103v612h379q129 0 225 -45q213 -90 213 -391v-596q0 -156 -58 -250q-107 -186 -382 -186h-377v618h-103zM377 233h102q180 0 180 228v553q0 227 -182 227h-100v-385h133v-238h-133v-385z" />
<glyph unicode="&#xd1;" horiz-adv-x="1038" d="M94 0v1468h236l338 -827l51 -166l-14 199v794h239v-1468h-229l-346 834l-52 176l17 -219v-791h-240zM229 1571q2 155 44 223t143 68q54 0 102 -25q19 -11 49.5 -32.5t50.5 -32.5t37 -11q29 0 39.5 19t10.5 73h161q0 -155 -42 -222.5t-144 -67.5q-61 0 -100 26 q-19 11 -49.5 33.5t-52 33.5t-42.5 11q-45 0 -45 -96h-162z" />
<glyph unicode="&#xd2;" horiz-adv-x="999" d="M76 424v616q0 221 112.5 334t311.5 113t311.5 -113t112.5 -334v-616q0 -224 -112 -335.5t-312 -111.5q-204 0 -314 110.5t-110 336.5zM186 1911h256l158 -318h-180zM350 444q0 -116 34 -168.5t116 -52.5q79 0 114 53t35 168v584q0 116 -35 169.5t-114 53.5 q-82 0 -116 -53t-34 -170v-584z" />
<glyph unicode="&#xd3;" horiz-adv-x="999" d="M76 424v616q0 221 112.5 334t311.5 113t311.5 -113t112.5 -334v-616q0 -224 -112 -335.5t-312 -111.5q-204 0 -314 110.5t-110 336.5zM350 444q0 -116 34 -168.5t116 -52.5q79 0 114 53t35 168v584q0 116 -35 169.5t-114 53.5q-82 0 -116 -53t-34 -170v-584zM416 1593 l184 318h258l-252 -318h-190z" />
<glyph unicode="&#xd4;" horiz-adv-x="999" d="M76 424v616q0 221 112.5 334t311.5 113t311.5 -113t112.5 -334v-616q0 -224 -112 -335.5t-312 -111.5q-204 0 -314 110.5t-110 336.5zM223 1593l199 338h168l201 -338h-197l-88 170l-92 -170h-191zM350 444q0 -116 34 -168.5t116 -52.5q79 0 114 53t35 168v584 q0 116 -35 169.5t-114 53.5q-82 0 -116 -53t-34 -170v-584z" />
<glyph unicode="&#xd5;" horiz-adv-x="999" d="M76 424v616q0 221 112.5 334t311.5 113t311.5 -113t112.5 -334v-616q0 -224 -112 -335.5t-312 -111.5q-204 0 -314 110.5t-110 336.5zM186 1595q2 155 44 223t143 68q55 0 102 -24q19 -11 49.5 -32.5t50.5 -32.5t37 -11q29 0 39.5 19t10.5 73h161q0 -156 -42 -223.5 t-144 -67.5q-59 0 -100 27q-19 11 -49.5 33.5t-52 33.5t-42.5 11q-45 0 -45 -97h-162zM350 444q0 -116 34 -168.5t116 -52.5q79 0 114 53t35 168v584q0 116 -35 169.5t-114 53.5q-82 0 -116 -53t-34 -170v-584z" />
<glyph unicode="&#xd6;" horiz-adv-x="999" d="M76 424v616q0 221 112.5 334t311.5 113t311.5 -113t112.5 -334v-616q0 -224 -112 -335.5t-312 -111.5q-204 0 -314 110.5t-110 336.5zM231 1710q0 75 26.5 104t92.5 29q67 0 95 -29t28 -104q0 -72 -27.5 -101.5t-95.5 -29.5t-93.5 27.5t-25.5 103.5zM350 444 q0 -116 34 -168.5t116 -52.5q79 0 114 53t35 168v584q0 116 -35 169.5t-114 53.5q-82 0 -116 -53t-34 -170v-584zM539 1710q0 76 26.5 104.5t91.5 28.5q67 0 94 -29t27 -104q0 -72 -27.5 -101.5t-93.5 -29.5q-70 0 -94 27t-24 104z" />
<glyph unicode="&#xd7;" horiz-adv-x="901" d="M94 528l207 207l-192 195l149 149l193 -194l196 198l148 -151l-195 -197l203 -205l-148 -151l-204 207l-207 -207z" />
<glyph unicode="&#xd8;" horiz-adv-x="1015" d="M74 430v608q0 222 115.5 338.5t320.5 116.5q32 0 68 -4l40 151h213l-59 -217q170 -113 170 -385v-610q0 -225 -114.5 -340t-319.5 -115q-35 0 -53 2l-45 -176h-222l68 236q-182 110 -182 395zM342 446q0 -231 166 -231q168 0 168 231v582q0 232 -168 232 q-166 0 -166 -232v-582z" />
<glyph unicode="&#xd9;" horiz-adv-x="972" d="M86 418v1050h268v-1034q0 -107 30.5 -152.5t102.5 -45.5t103 45t31 153v1034h266v-1050q0 -226 -101.5 -333.5t-298.5 -107.5q-202 0 -301.5 106.5t-99.5 334.5zM168 1884h256l158 -317h-181z" />
<glyph unicode="&#xda;" horiz-adv-x="972" d="M86 418v1050h268v-1034q0 -107 30.5 -152.5t102.5 -45.5t103 45t31 153v1034h266v-1050q0 -226 -101.5 -333.5t-298.5 -107.5q-202 0 -301.5 106.5t-99.5 334.5zM385 1567l184 317h258l-252 -317h-190z" />
<glyph unicode="&#xdb;" horiz-adv-x="972" d="M86 418v1050h268v-1034q0 -107 30.5 -152.5t102.5 -45.5t103 45t31 153v1034h266v-1050q0 -226 -101.5 -333.5t-298.5 -107.5q-202 0 -301.5 106.5t-99.5 334.5zM205 1567l198 338h168l201 -338h-197l-88 170l-92 -170h-190z" />
<glyph unicode="&#xdc;" horiz-adv-x="972" d="M86 418v1050h268v-1034q0 -107 30.5 -152.5t102.5 -45.5t103 45t31 153v1034h266v-1050q0 -226 -101.5 -333.5t-298.5 -107.5q-202 0 -301.5 106.5t-99.5 334.5zM213 1694q0 75 26.5 104t92.5 29q67 0 95 -29t28 -104q0 -72 -27.5 -101.5t-95.5 -29.5t-93.5 27.5 t-25.5 103.5zM520 1694q0 75 26.5 104t92.5 29q67 0 94 -29t27 -104q0 -72 -27.5 -101.5t-93.5 -29.5q-70 0 -94.5 27t-24.5 104z" />
<glyph unicode="&#xdd;" horiz-adv-x="882" d="M2 1468h274l148 -532l16 -125l17 125l153 532h273l-310 -942v-526h-272v526zM346 1565l184 317h258l-251 -317h-191z" />
<glyph unicode="&#xde;" horiz-adv-x="944" d="M96 0v1468h260v-235h131q211 0 308.5 -88t97.5 -275v-247q0 -373 -404 -373h-133v-250h-260zM356 481h121q77 0 114.5 35t37.5 111v239q0 77 -36.5 108.5t-117.5 31.5h-119v-525z" />
<glyph unicode="&#xdf;" horiz-adv-x="960" d="M88 0v1206q0 167 101.5 260t293.5 93t286.5 -87t94.5 -253v-160q0 -95 -30 -154.5t-99 -87.5q80 -24 119 -83t39 -165v-225q0 -118 -27 -194q-25 -78 -98 -114t-215 -36h-92v236h33q72 0 101.5 33.5t29.5 111.5v174q0 76 -32.5 108.5t-105.5 32.5h-26v222h24 q125 0 125 143v141q0 127 -129 127q-70 0 -100.5 -34t-30.5 -101v-1194h-262z" />
<glyph unicode="&#xe0;" horiz-adv-x="917" d="M53 272v68q0 145 97 229q30 26 71 47.5t76 34t115 39.5q106 38 139 66t33 88v26q0 127 -121 127q-127 0 -127 -133v-123h-254v127q0 157 95.5 246.5t283.5 89.5q196 0 286.5 -85.5t90.5 -264.5v-854h-207l-35 154q-73 -172 -266 -172q-277 0 -277 290zM150 1624h256 l157 -317h-180zM326 299q0 -51 30.5 -82t81.5 -31q69 0 107.5 53t38.5 144v227q-20 -26 -97 -53q-100 -40 -125 -74q-36 -39 -36 -133v-51z" />
<glyph unicode="&#xe1;" horiz-adv-x="917" d="M53 272v68q0 145 97 229q30 26 71 47.5t76 34t115 39.5q106 38 139 66t33 88v26q0 127 -121 127q-127 0 -127 -133v-123h-254v127q0 157 95.5 246.5t283.5 89.5q196 0 286.5 -85.5t90.5 -264.5v-854h-207l-35 154q-73 -172 -266 -172q-277 0 -277 290zM326 299 q0 -51 30.5 -82t81.5 -31q69 0 107.5 53t38.5 144v227q-20 -26 -97 -53q-100 -40 -125 -74q-36 -39 -36 -133v-51zM354 1307l185 317h258l-252 -317h-191z" />
<glyph unicode="&#xe2;" horiz-adv-x="917" d="M53 272v68q0 145 97 229q30 26 71 47.5t76 34t115 39.5q106 38 139 66t33 88v26q0 127 -121 127q-127 0 -127 -133v-123h-254v127q0 157 95.5 246.5t283.5 89.5q196 0 286.5 -85.5t90.5 -264.5v-854h-207l-35 154q-73 -172 -266 -172q-277 0 -277 290zM188 1307l199 338 h168l201 -338h-197l-88 170l-92 -170h-191zM326 299q0 -51 30.5 -82t81.5 -31q69 0 107.5 53t38.5 144v227q-20 -26 -97 -53q-100 -40 -125 -74q-36 -39 -36 -133v-51z" />
<glyph unicode="&#xe3;" horiz-adv-x="917" d="M53 272v68q0 145 97 229q30 26 71 47.5t76 34t115 39.5q106 38 139 66t33 88v26q0 127 -121 127q-127 0 -127 -133v-123h-254v127q0 157 95.5 246.5t283.5 89.5q196 0 286.5 -85.5t90.5 -264.5v-854h-207l-35 154q-73 -172 -266 -172q-277 0 -277 290zM152 1309 q2 155 43.5 222.5t142.5 67.5q56 0 102 -24q19 -11 49.5 -32.5t51 -32.5t37.5 -11q29 0 39 19t10 73h161q0 -156 -42 -223.5t-144 -67.5q-60 0 -100 27q-19 11 -49.5 33.5t-52 33.5t-42.5 11q-45 0 -45 -96h-161zM326 299q0 -51 30.5 -82t81.5 -31q69 0 107.5 53t38.5 144 v227q-20 -26 -97 -53q-100 -40 -125 -74q-36 -39 -36 -133v-51z" />
<glyph unicode="&#xe4;" horiz-adv-x="917" d="M53 272v68q0 145 97 229q30 26 71 47.5t76 34t115 39.5q106 38 139 66t33 88v26q0 127 -121 127q-127 0 -127 -133v-123h-254v127q0 157 95.5 246.5t283.5 89.5q196 0 286.5 -85.5t90.5 -264.5v-854h-207l-35 154q-73 -172 -266 -172q-277 0 -277 290zM197 1434 q0 76 26.5 104.5t91.5 28.5q67 0 95 -29t28 -104q0 -72 -27.5 -101.5t-95.5 -29.5t-93 27.5t-25 103.5zM326 299q0 -51 30.5 -82t81.5 -31q69 0 107.5 53t38.5 144v227q-20 -26 -97 -53q-100 -40 -125 -74q-36 -39 -36 -133v-51zM504 1434q0 75 26.5 104t92.5 29 q67 0 93.5 -28.5t26.5 -104.5q0 -72 -27 -101.5t-93 -29.5q-70 0 -94.5 27t-24.5 104z" />
<glyph unicode="&#xe5;" horiz-adv-x="917" d="M53 272v68q0 145 97 229q30 26 71 47.5t76 34t115 39.5q106 38 139 66t33 88v26q0 127 -121 127q-127 0 -127 -133v-123h-254v127q0 157 95.5 246.5t283.5 89.5q196 0 286.5 -85.5t90.5 -264.5v-854h-207l-35 154q-73 -172 -266 -172q-277 0 -277 290zM231 1524 q0 105 65 163t169 58q108 0 171.5 -58t63.5 -161q0 -102 -63 -159.5t-172 -57.5q-110 0 -172 55t-62 160zM326 299q0 -51 30.5 -82t81.5 -31q69 0 107.5 53t38.5 144v227q-20 -26 -97 -53q-100 -40 -125 -74q-36 -39 -36 -133v-51zM399 1526q0 -30 17 -48t49 -18q30 0 50 18 t20 48q0 32 -18 50.5t-52 18.5q-32 0 -49 -19t-17 -50z" />
<glyph unicode="&#xe6;" horiz-adv-x="1429" d="M53 266v80q0 138 97 223q15 13 34 25.5t32.5 20t42.5 19.5t41.5 17t54 20t57.5 21q104 36 138 64.5t34 83.5v32q0 127 -119 127q-129 0 -129 -133v-125h-256v129q0 155 98 245.5t281 90.5q194 0 270 -94q92 92 260 92q199 0 290 -104t91 -301v-283h-536v-121 q0 -97 33 -142.5t106 -45.5q74 0 103.5 41.5t29.5 126.5v37h264v-39q0 -111 -35 -201q-76 -192 -362 -192q-261 -3 -332 190q-64 -188 -297 -188q-291 0 -291 284zM330 303q0 -117 106 -117q71 0 109.5 53t38.5 144v227q-15 -24 -97 -53q-87 -34 -122 -72 q-20 -25 -27.5 -53.5t-7.5 -81.5v-47zM834 696h280v105q0 94 -31.5 139t-103.5 45q-145 0 -145 -194v-95z" />
<glyph unicode="&#xe7;" horiz-adv-x="913" d="M72 387v406q0 208 102 310.5t297 102.5q192 0 285.5 -99.5t93.5 -303.5v-113h-268v109q0 103 -25 142.5t-94 39.5q-70 0 -99.5 -44t-29.5 -149v-395q0 -97 29 -139.5t98 -42.5q66 0 93.5 41t27.5 133v141h268v-149q0 -175 -74 -271.5t-225 -119.5v-88q203 -12 203 -183 q0 -102 -73.5 -157.5t-203.5 -55.5q-140 0 -210.5 52.5t-90.5 169.5h205q15 -72 98 -72q88 0 88 65q0 58 -90 58h-96v209q-160 19 -234.5 117.5t-74.5 285.5z" />
<glyph unicode="&#xe8;" horiz-adv-x="917" d="M74 391v400q0 198 105 306.5t290 108.5q199 0 294 -107.5t95 -299.5v-279h-530v-129q0 -98 33.5 -141t109.5 -43q72 0 99.5 42t27.5 126v37h260v-31q0 -123 -31 -203q-67 -198 -358 -198q-203 -1 -299 101.5t-96 309.5zM162 1624h256l157 -317h-180zM328 700h278v101 q0 96 -29.5 140t-103.5 44q-145 0 -145 -194v-91z" />
<glyph unicode="&#xe9;" horiz-adv-x="917" d="M74 391v400q0 198 105 306.5t290 108.5q199 0 294 -107.5t95 -299.5v-279h-530v-129q0 -98 33.5 -141t109.5 -43q72 0 99.5 42t27.5 126v37h260v-31q0 -123 -31 -203q-67 -198 -358 -198q-203 -1 -299 101.5t-96 309.5zM328 700h278v101q0 96 -29.5 140t-103.5 44 q-145 0 -145 -194v-91zM371 1307l184 317h258l-252 -317h-190z" />
<glyph unicode="&#xea;" horiz-adv-x="917" d="M74 391v400q0 198 105 306.5t290 108.5q199 0 294 -107.5t95 -299.5v-279h-530v-129q0 -98 33.5 -141t109.5 -43q72 0 99.5 42t27.5 126v37h260v-31q0 -123 -31 -203q-67 -198 -358 -198q-203 -1 -299 101.5t-96 309.5zM193 1307l198 338h168l201 -338h-197l-88 170 l-92 -170h-190zM328 700h278v101q0 96 -29.5 140t-103.5 44q-145 0 -145 -194v-91z" />
<glyph unicode="&#xeb;" horiz-adv-x="917" d="M74 391v400q0 198 105 306.5t290 108.5q199 0 294 -107.5t95 -299.5v-279h-530v-129q0 -98 33.5 -141t109.5 -43q72 0 99.5 42t27.5 126v37h260v-31q0 -123 -31 -203q-67 -198 -358 -198q-203 -1 -299 101.5t-96 309.5zM199 1434q0 76 26.5 104.5t91.5 28.5q67 0 95 -29 t28 -104q0 -72 -27.5 -101.5t-95.5 -29.5t-93 27.5t-25 103.5zM328 700h278v101q0 96 -29.5 140t-103.5 44q-145 0 -145 -194v-91zM506 1434q0 75 26.5 104t92.5 29q67 0 93.5 -28.5t26.5 -104.5q0 -72 -27 -101.5t-93 -29.5q-70 0 -94.5 27t-24.5 104z" />
<glyph unicode="&#xec;" horiz-adv-x="444" d="M-98 1610h256l157 -318h-180zM88 0v1190h268v-1190h-268z" />
<glyph unicode="&#xed;" horiz-adv-x="444" d="M88 0v1190h268v-1190h-268zM127 1303l184 317h258l-252 -317h-190z" />
<glyph unicode="&#xee;" horiz-adv-x="444" d="M-63 1292l198 338h168l201 -338h-197l-88 170l-92 -170h-190zM88 0v1190h268v-1190h-268z" />
<glyph unicode="&#xef;" horiz-adv-x="444" d="M-57 1419q0 76 26.5 104.5t91.5 28.5q67 0 95 -29t28 -104q0 -72 -27.5 -101.5t-95.5 -29.5t-93 27.5t-25 103.5zM88 0v1190h268v-1190h-268zM250 1419q0 75 26.5 104t92.5 29q67 0 93.5 -28.5t26.5 -104.5q0 -72 -27 -101.5t-93 -29.5q-70 0 -94.5 27t-24.5 104z" />
<glyph unicode="&#xf0;" horiz-adv-x="935" d="M70 377v397q0 193 87.5 294t250.5 101q128 0 180 -82q-39 104 -142 207l-84 -59h-231l215 149q-99 80 -256 177h356q21 -12 74 -54l78 54h229l-206 -146q239 -248 239 -614v-406q0 -207 -102.5 -311t-292.5 -104q-395 0 -395 397zM330 383q0 -172 137 -172q135 0 135 174 v387q0 172 -131 172q-141 0 -141 -172v-389z" />
<glyph unicode="&#xf1;" horiz-adv-x="942" d="M88 0v1190h215l29 -174q54 188 248 188q282 0 282 -356v-848h-264v805q0 87 -25.5 127.5t-89.5 40.5q-131 0 -131 -189v-784h-264zM176 1296q2 155 43.5 223t142.5 68q56 0 103 -24q19 -11 49.5 -32.5t50.5 -32.5t37 -11q29 0 39 19t10 73h162q0 -156 -42 -223.5 t-144 -67.5q-61 0 -101 27q-19 11 -49 33.5t-51.5 33.5t-42.5 11q-45 0 -45 -97h-162z" />
<glyph unicode="&#xf2;" d="M72 387v406q0 203 103.5 308t289.5 105q191 0 292 -104t101 -309v-406q0 -204 -99.5 -305.5t-293.5 -101.5q-200 0 -296.5 100t-96.5 307zM147 1624h256l158 -317h-180zM334 393q0 -182 131 -182t131 182v398q0 98 -30.5 144t-100.5 46q-131 0 -131 -190v-398z" />
<glyph unicode="&#xf3;" d="M72 387v406q0 203 103.5 308t289.5 105q191 0 292 -104t101 -309v-406q0 -204 -99.5 -305.5t-293.5 -101.5q-200 0 -296.5 100t-96.5 307zM334 393q0 -182 131 -182t131 182v398q0 98 -30.5 144t-100.5 46q-131 0 -131 -190v-398zM367 1307l184 317h258l-252 -317h-190z " />
<glyph unicode="&#xf4;" d="M72 387v406q0 203 103.5 308t289.5 105q191 0 292 -104t101 -309v-406q0 -204 -99.5 -305.5t-293.5 -101.5q-200 0 -296.5 100t-96.5 307zM186 1307l199 338h168l201 -338h-197l-88 170l-92 -170h-191zM334 393q0 -182 131 -182t131 182v398q0 98 -30.5 144t-100.5 46 q-131 0 -131 -190v-398z" />
<glyph unicode="&#xf5;" d="M72 387v406q0 203 103.5 308t289.5 105q191 0 292 -104t101 -309v-406q0 -204 -99.5 -305.5t-293.5 -101.5q-200 0 -296.5 100t-96.5 307zM150 1309q2 155 43.5 222.5t142.5 67.5q56 0 102 -24q19 -11 49.5 -32.5t50.5 -32.5t37 -11q29 0 39.5 19t10.5 73h161 q0 -156 -42 -223.5t-144 -67.5q-60 0 -100 27q-19 11 -49.5 33.5t-52 33.5t-42.5 11q-45 0 -45 -96h-161zM334 393q0 -182 131 -182t131 182v398q0 98 -30.5 144t-100.5 46q-131 0 -131 -190v-398z" />
<glyph unicode="&#xf6;" d="M72 387v406q0 203 103.5 308t289.5 105q191 0 292 -104t101 -309v-406q0 -204 -99.5 -305.5t-293.5 -101.5q-200 0 -296.5 100t-96.5 307zM195 1434q0 76 26.5 104.5t91.5 28.5q67 0 95 -29t28 -104q0 -72 -27.5 -101.5t-95.5 -29.5t-93 27.5t-25 103.5zM334 393 q0 -182 131 -182t131 182v398q0 98 -30.5 144t-100.5 46q-131 0 -131 -190v-398zM502 1434q0 75 26.5 104t92.5 29q67 0 93.5 -28.5t26.5 -104.5q0 -72 -27 -101.5t-93 -29.5q-70 0 -94.5 27t-24.5 104z" />
<glyph unicode="&#xf7;" horiz-adv-x="907" d="M96 606v232h717v-232h-717zM319 418q0 66 30 89t104 23q76 0 105.5 -23t29.5 -89t-30 -90.5t-105 -24.5q-78 0 -106 23t-28 92zM319 1028q0 66 30 90.5t104 24.5q75 0 105 -24.5t30 -90.5q0 -65 -30 -90t-105 -25q-77 0 -105.5 24t-28.5 91z" />
<glyph unicode="&#xf8;" d="M72 387v406q0 203 103.5 308t289.5 105h35l41 146h229l-59 -211q147 -102 147 -348v-406q0 -204 -99.5 -305.5t-293.5 -101.5q-29 0 -43 2l-45 -168h-232l64 231q-137 100 -137 342zM332 393q0 -182 133 -182t133 182v398q0 190 -133 190t-133 -190v-398z" />
<glyph unicode="&#xf9;" d="M84 338v852h264v-807q0 -84 24.5 -126t86.5 -42q64 0 92.5 48.5t28.5 142.5v784h262v-1190h-213l-31 172q-49 -190 -233 -190q-144 0 -212.5 87t-68.5 269zM139 1604h256l158 -318h-180z" />
<glyph unicode="&#xfa;" d="M84 338v852h264v-807q0 -84 24.5 -126t86.5 -42q64 0 92.5 48.5t28.5 142.5v784h262v-1190h-213l-31 172q-49 -190 -233 -190q-144 0 -212.5 87t-68.5 269zM358 1286l185 318h258l-252 -318h-191z" />
<glyph unicode="&#xfb;" d="M84 338v852h264v-807q0 -84 24.5 -126t86.5 -42q64 0 92.5 48.5t28.5 142.5v784h262v-1190h-213l-31 172q-49 -190 -233 -190q-144 0 -212.5 87t-68.5 269zM180 1286l199 338h168l201 -338h-197l-88 170l-92 -170h-191z" />
<glyph unicode="&#xfc;" d="M84 338v852h264v-807q0 -84 24.5 -126t86.5 -42q64 0 92.5 48.5t28.5 142.5v784h262v-1190h-213l-31 172q-49 -190 -233 -190q-144 0 -212.5 87t-68.5 269zM186 1413q0 75 26.5 104t92.5 29q67 0 95 -29t28 -104q0 -72 -27.5 -101.5t-95.5 -29.5t-93.5 27.5t-25.5 103.5z M494 1413q0 76 26.5 104.5t91.5 28.5q67 0 94 -29t27 -104q0 -72 -27.5 -101.5t-93.5 -29.5q-70 0 -94 27t-24 104z" />
<glyph unicode="&#xfd;" horiz-adv-x="884" d="M18 1190h263l153 -641l17 -223l18 227l143 637h258l-317 -1258q-37 -131 -70 -188q-37 -63 -103 -87t-190 -24h-127v246h99q79 0 108.5 20t46.5 89l15 67zM336 1282l184 317h258l-252 -317h-190z" />
<glyph unicode="&#xfe;" horiz-adv-x="948" d="M88 -381v1917h258v-485q62 155 225 155q152 0 230 -104.5t78 -335.5v-330q0 -237 -78.5 -346.5t-233.5 -109.5q-160 0 -221 147v-508h-258zM342 416q0 -201 137 -201q70 0 104.5 48t34.5 159v350q0 112 -33.5 161.5t-101.5 49.5q-141 0 -141 -203v-364z" />
<glyph unicode="&#xff;" horiz-adv-x="884" d="M18 1190h263l153 -641l17 -223l18 227l143 637h258l-317 -1258q-37 -131 -70 -188q-37 -63 -103 -87t-190 -24h-127v246h99q79 0 108.5 20t46.5 89l15 67zM172 1413q0 75 26.5 104t92.5 29q67 0 95 -29t28 -104q0 -72 -27.5 -101.5t-95.5 -29.5t-93.5 27.5t-25.5 103.5z M479 1413q0 75 26.5 104t92.5 29q67 0 94 -29t27 -104q0 -72 -27.5 -101.5t-93.5 -29.5q-70 0 -94.5 27t-24.5 104z" />
<glyph unicode="&#x152;" horiz-adv-x="1384" d="M72 428v610q0 222 92 335.5t262 113.5q161 0 213 -107v88h674v-235h-414v-369h377v-237h-377v-381h426v-246h-686v92q-53 -112 -213 -112q-177 0 -265.5 109.5t-88.5 338.5zM346 446q0 -117 34 -170t116 -53q79 0 114 54t35 169v580q0 117 -35 171t-114 54 q-81 0 -115.5 -55.5t-34.5 -169.5v-580z" />
<glyph unicode="&#x153;" horiz-adv-x="1462" d="M70 387v406q0 201 104 307t283 106q198 0 274 -123q85 123 285 123q133 0 219 -53q166 -98 166 -350v-285h-549v-125q0 -190 147 -190q134 0 134 141v76h268v-82q0 -164 -99.5 -261t-289.5 -97q-206 0 -287 114q-79 -114 -276 -114q-379 0 -379 407zM330 393 q0 -182 137 -182t137 182v395q0 97 -33.5 144t-103.5 47q-137 0 -137 -191v-395zM852 702h293v111q0 93 -33 136.5t-108 43.5q-152 0 -152 -192v-99z" />
<glyph unicode="&#x178;" horiz-adv-x="882" d="M2 1468h274l148 -532l16 -125l17 125l153 532h273l-310 -942v-526h-272v526zM174 1692q0 75 26.5 104t92.5 29q67 0 95 -29t28 -104q0 -72 -27.5 -101.5t-95.5 -29.5t-93.5 27.5t-25.5 103.5zM481 1692q0 75 26.5 104t92.5 29q67 0 94 -29t27 -104q0 -72 -27.5 -101.5 t-93.5 -29.5q-70 0 -94.5 27t-24.5 104z" />
<glyph unicode="&#x2c6;" horiz-adv-x="800" d="M117 1303l198 337h168l201 -337h-197l-88 170l-92 -170h-190z" />
<glyph unicode="&#x2dc;" horiz-adv-x="800" d="M88 1305q2 155 43.5 222.5t142.5 67.5q56 0 103 -24q19 -11 49.5 -32.5t50.5 -32.5t37 -11q29 0 39 19t10 73h162q0 -156 -42 -223.5t-144 -67.5q-61 0 -101 27q-19 11 -49 33.5t-51.5 33.5t-42.5 11q-45 0 -45 -96h-162z" />
<glyph unicode="&#x2000;" horiz-adv-x="994" />
<glyph unicode="&#x2001;" horiz-adv-x="1989" />
<glyph unicode="&#x2002;" horiz-adv-x="994" />
<glyph unicode="&#x2003;" horiz-adv-x="1989" />
<glyph unicode="&#x2004;" horiz-adv-x="663" />
<glyph unicode="&#x2005;" horiz-adv-x="497" />
<glyph unicode="&#x2006;" horiz-adv-x="331" />
<glyph unicode="&#x2007;" horiz-adv-x="331" />
<glyph unicode="&#x2008;" horiz-adv-x="248" />
<glyph unicode="&#x2009;" horiz-adv-x="397" />
<glyph unicode="&#x200a;" horiz-adv-x="110" />
<glyph unicode="&#x2010;" horiz-adv-x="772" d="M76 487v254h622v-254h-622z" />
<glyph unicode="&#x2011;" horiz-adv-x="772" d="M76 487v254h622v-254h-622z" />
<glyph unicode="&#x2012;" horiz-adv-x="772" d="M76 487v254h622v-254h-622z" />
<glyph unicode="&#x2013;" horiz-adv-x="724" d="M76 487v254h575v-254h-575z" />
<glyph unicode="&#x2014;" horiz-adv-x="991" d="M76 487v254h842v-254h-842z" />
<glyph unicode="&#x2018;" horiz-adv-x="468" d="M94 1157q0 329 262 332v-117q-104 -9 -116 -117q6 2 22 2q64 0 89.5 -28.5t25.5 -120.5q0 -93 -29.5 -124.5t-109.5 -31.5q-85 0 -114.5 40.5t-29.5 164.5z" />
<glyph unicode="&#x2019;" horiz-adv-x="468" d="M94 1327q0 94 29 126t108 32q85 0 114.5 -40t29.5 -165q0 -325 -262 -334v119q107 9 116 117l-7 -1q-7 -1 -13 -1q-65 0 -90 28t-25 119z" />
<glyph unicode="&#x201a;" horiz-adv-x="479" d="M96 143q0 93 30 124.5t110 31.5q85 0 114 -40t29 -165q0 -331 -262 -334v119q56 2 83 28.5t33 86.5q-2 -2 -22 -2q-64 0 -89.5 29.5t-25.5 121.5z" />
<glyph unicode="&#x201c;" horiz-adv-x="847" d="M94 1157q0 329 262 332v-119q-104 -3 -116 -115q6 2 22 2q64 0 89.5 -28.5t25.5 -120.5q0 -93 -29.5 -124.5t-109.5 -31.5q-85 0 -114.5 40.5t-29.5 164.5zM475 1157q0 329 260 332v-119q-105 -3 -117 -115q6 2 23 2q64 0 89.5 -28.5t25.5 -120.5q0 -93 -29 -124.5 t-109 -31.5q-85 0 -114 40.5t-29 164.5z" />
<glyph unicode="&#x201d;" horiz-adv-x="847" d="M92 1327q0 93 29.5 125.5t109.5 32.5q85 0 114.5 -40t29.5 -165q0 -325 -262 -334v119q104 9 116 117l-8 -1q-8 -1 -14 -1q-64 0 -89.5 28t-25.5 119zM471 1327q0 93 29.5 125.5t109.5 32.5q85 0 114.5 -40t29.5 -165q0 -325 -262 -334v119q104 9 116 117q-6 -2 -20 -2 q-66 0 -91.5 28t-25.5 119z" />
<glyph unicode="&#x201e;" horiz-adv-x="847" d="M92 143q0 93 29.5 124.5t109.5 31.5q85 0 114.5 -40t29.5 -165q0 -331 -262 -334v119q56 2 83 28.5t33 86.5q-2 -2 -22 -2q-64 0 -89.5 29.5t-25.5 121.5zM471 143q0 93 29.5 124.5t109.5 31.5q85 0 114.5 -40t29.5 -165q0 -331 -262 -334v119q56 2 83 28.5t33 86.5 q-6 -2 -20 -2q-65 0 -91 29.5t-26 121.5z" />
<glyph unicode="&#x2022;" horiz-adv-x="624" d="M119 602q0 107 46 152t146 45q105 0 150 -43t45 -154q0 -108 -45.5 -153.5t-149.5 -45.5q-105 0 -148.5 44.5t-43.5 154.5z" />
<glyph unicode="&#x2026;" horiz-adv-x="1302" d="M100 158q0 106 30 140t116 34t115.5 -33.5t29.5 -140.5q0 -106 -29.5 -140t-115.5 -34t-116 34t-30 140zM508 158q0 106 30 140t115 34q87 0 117.5 -34t30.5 -140q0 -105 -30.5 -139.5t-117.5 -34.5q-86 0 -115.5 34t-29.5 140zM911 158q0 106 31 140t117 34t115.5 -33.5 t29.5 -140.5q0 -106 -29.5 -140t-115.5 -34q-87 0 -117.5 34.5t-30.5 139.5z" />
<glyph unicode="&#x202f;" horiz-adv-x="397" />
<glyph unicode="&#x2039;" horiz-adv-x="636" d="M88 602v21l236 389h241l-246 -391l265 -394h-252z" />
<glyph unicode="&#x203a;" horiz-adv-x="636" d="M55 227l264 394l-245 391h241l236 -389v-21l-244 -375h-252z" />
<glyph unicode="&#x205f;" horiz-adv-x="497" />
<glyph unicode="&#x20ac;" horiz-adv-x="1032" d="M39 545v151h115v99h-115v151h115v101q0 221 109.5 331.5t311.5 110.5q209 0 312.5 -101.5t103.5 -297.5v-56h-278v37q0 95 -31 137.5t-109 42.5q-82 0 -114.5 -51.5t-32.5 -169.5v-84h420l-49 -151h-371v-99h338l-49 -151h-289v-101q0 -117 33 -168t116 -51 q78 0 108 44.5t30 150.5v49h282v-68q-1 -218 -107.5 -321t-312.5 -103q-213 0 -317 108.5t-104 338.5v121h-115z" />
<glyph unicode="&#x2122;" horiz-adv-x="997" d="M43 1329v139h348v-139h-102v-483h-146v483h-100zM449 846v622h124l109 -254l106 254h125v-622h-133v295l4 43l-2 -4l-92 -189h-18l-97 193l5 -43v-295h-131z" />
<glyph unicode="&#x25fc;" horiz-adv-x="1187" d="M0 0v1188h1188v-1188h-1188z" />
</font>
</defs>
</svg>
