<svg xmlns="http://www.w3.org/2000/svg" width="161" height="161" viewBox="0 0 161 161">
  <g id="Groupe_851" data-name="Groupe 851" transform="translate(-133 -149)">
    <circle id="Ellipse_51" data-name="Ellipse 51" cx="80.5" cy="80.5" r="80.5" transform="translate(133 149)" fill="#dfdfdf"/>
    <g id="user-avatar-filled-alt" transform="translate(132.813 149.313)">
      <path id="Tracé_665" data-name="Tracé 665" d="M80.187,2.25a77.937,77.937,0,1,0,77.938,77.937A77.937,77.937,0,0,0,80.187,2.25Zm44.536,127.59v-3.385A29,29,0,0,0,96.888,96.888h-33.4a28.948,28.948,0,0,0-27.78,29.562c0,.059-.054.124-.054.183v3.256a66.833,66.833,0,1,1,89.071-.054Z" transform="translate(0 0)" fill="#fff"/>
      <path id="Tracé_666" data-name="Tracé 666" d="M40.21,7.875A27.835,27.835,0,1,0,68.045,35.71,27.835,27.835,0,0,0,40.21,7.875Z" transform="translate(39.978 22.21)" fill="#fff"/>
    </g>
  </g>
</svg>
